<svg xmlns="http://www.w3.org/2000/svg" version="1.1" xmlns:xlink="http://www.w3.org/1999/xlink" xmlns:svgjs="http://svgjs.dev/svgjs" width="1000" height="1125" viewBox="0 0 1000 1125"><g transform="matrix(1,0,0,1,0,0)"><svg viewBox="0 0 320 360" data-background-color="#282634" preserveAspectRatio="xMidYMid meet" height="1125" width="1000" xmlns="http://www.w3.org/2000/svg" xmlns:xlink="http://www.w3.org/1999/xlink"><g id="tight-bounds" transform="matrix(1,0,0,1,0,0)"><svg viewBox="0 0 320 360" height="360" width="320"><g><svg></svg></g><g><svg viewBox="0 0 320 360" height="360" width="320"><g><path d="M219.58 41.008c0.707 0 6.365 2.829 9.547 3.89-1.061 0.354-3.536-0.707-6.365-1.768 0.707 0 2.122 0.354 3.536 1.06-0.707-0.707-6.011-2.475-6.718-3.182M166.895 30.047c1.061-0.354 13.436 1.414 19.094 1.768 0.354-0.354-0.707-0.354-2.122-0.707 1.768-0.354 5.304 0.707 7.779 1.06-7.425 0.354-15.558-1.768-22.629-1.06-2.475 0-0.707-0.707-2.122-1.061M156.641 30.047c6.365 0 11.315 0 2.121 0.707-1.061-0.354-2.475-0.354-2.121-0.707M256.707 59.395c0.707 0 3.536 3.182 4.95 4.243-0.354 0.354-3.182-2.475-4.596-3.536 0.354 0.354 0 0-0.354-0.707M249.635 54.798c-2.829-2.475-3.889-2.475-4.243-3.889 2.475 1.414 4.243 2.829 4.243 3.889M204.022 32.522c0.354-0.354 1.061 0.354 2.829 0.707-2.122-0.354-1.768 0-1.061 0.707-2.475-0.354-3.182-0.707-2.475-1.414 1.414 0.707 1.768 0.354 0.707 0M103.602 36.765c0-0.354 1.414-1.061 2.475-1.414-1.061 0.707-0.707 1.061 1.061 0.353 0 0.354-2.122 1.061-3.536 1.768 0.707-0.354 1.414-1.414 0-0.707M211.094 28.986c-1.061 0.354-4.95-1.768-8.84-2.475-2.122-0.707 8.486 1.768 8.84 2.475M2.475 203.66c2.122 8.84 0.707 8.486 0 0M2.829 150.621c0.354-1.414 0.707-5.304 1.06-4.95-1.061 8.486-2.829 12.376-3.182 18.74 1.061-5.657-0.354 3.182-0.707 5.304 0.354 2.829 0.354-1.768 1.061-1.06 0.707 1.061-1.414 15.912-0.707 7.779-0.707 7.425 0 15.558 1.414 17.679-1.768 11.315 7.072 36.773 8.84 42.077 0.354 0.354 0-1.768 0.707-0.353 0.707 4.597 3.889 7.779 4.95 12.729 1.061 1.414 5.304 9.193 6.011 10.962 1.414 2.829 2.122 2.475 3.536 5.303 4.243 8.133 10.961 15.912 17.326 23.337 20.508 24.044 51.978 43.845 86.984 50.918 35.006 7.425 71.779 2.122 100.419-11.669 1.768-1.061 1.414-1.414 3.536-2.122 9.901-3.182 21.923-13.436 28.641-17.326 3.182-3.536 11.669-9.547 12.73-13.082 6.011-4.95 12.022-13.083 15.204-18.387 1.768-2.829 3.182-2.829 3.889-4.597-0.354 0 5.657-7.425 7.426-11.668-0.707 0-1.768 2.122-1.768 0 12.729-24.398 19.801-57.282 15.911-79.912 0.707 27.934-6.365 59.05-19.801 78.851-6.011 12.729-18.387 26.519-29.701 36.42-1.768 1.768-3.536 3.889-5.658 5.304-6.718 5.657-14.144 10.254-21.922 14.497-18.387 10.254-38.895 19.094-62.94 19.447 41.37-3.536 78.497-24.398 99.006-49.856-15.558 15.204-22.276 21.215-39.602 30.055-1.414 2.475-13.083 7.425-20.862 9.547 4.597-2.122 14.144-5.657 17.326-8.486-25.812 12.376-54.453 19.448-81.326 15.558 10.254 0 24.751 0.354 38.541-2.121 2.122-0.707 3.182-1.414 5.658-1.768 26.873-6.011 52.685-19.094 71.072-37.481-10.608 9.547-26.519 20.862-36.774 24.398 9.547-5.304 26.873-15.558 32.53-23.337-11.315 11.315-32.53 22.63-45.966 27.58-2.122 0.354 1.414-1.414-2.122 0-4.243 1.061-2.475 1.061-3.536 1.768-16.265 4.597-35.006 8.486-50.563 7.072-2.829-0.354-3.889-1.061-6.365-1.061-2.829-0.354-5.304-0.354-8.486-0.354-12.376-1.414-25.812-6.365-35.713-10.607-5.304-2.475-10.608-4.243-15.912-7.426-4.243-2.475-7.779-5.304-11.314-8.132-13.436-9.901-24.751-19.801-35.36-33.945-19.094-26.519-28.994-59.757-27.58-92.641 1.414-32.884 14.497-65.061 35.359-88.752-1.061 1.061 1.414-2.475 3.536-4.596 0 0.707-0.354 1.768 2.122-0.707 2.122-2.475-0.707-0.707 0.353-2.122 21.923-24.044 60.111-43.492 99.36-44.199 1.414-1.061 3.889-2.475 6.718-1.768 0 0.354-1.768 0.354-1.768 0.354 3.889-0.354 7.425-0.354 9.193 0.353 0.354-0.354-1.414-0.707 0-0.707 2.475 0.707 3.182 0 4.597 0.707-1.061 0-2.122 0-2.829 0.354 8.84 0 14.497 2.122 23.337 2.829-4.597-1.061-5.657-1.061-9.193-2.122 3.889 0.707 5.657 1.414 7.425 1.061-0.707 0-0.354-1.061 0.354-0.707 7.072 1.768 7.779 2.475 15.204 4.95 0.707-0.707-3.182-1.061-4.243-2.122 7.072 2.475 13.436 4.243 17.68 7.072-1.414-1.061-5.657-2.475-8.84-3.889-0.354 0.354 1.061 0.707 1.414 1.414-3.536-1.768-8.486-3.536-13.436-4.243 4.243 1.061 7.072 2.475 8.84 3.182-3.889-0.707-8.84-3.182-14.498-4.243 9.193 2.829 26.519 9.193 37.127 14.851-3.889-2.475-8.486-4.243-10.961-5.657 2.122 0.354 4.597 1.768 4.597 1.06 2.475 1.061 5.657 3.536 7.425 3.89-3.182-2.122-9.547-5.304-11.668-6.365 26.519 12.022 50.21 32.177 65.414 57.989 1.414 2.475 3.536 8.133 5.304 8.84-0.354-1.768-1.768-2.829-3.182-5.657 0.707 0 0.707-1.061 0-2.122-1.414-1.768 0 1.414-1.415-0.354-6.365-11.669-14.144-21.923-26.165-33.237 6.718 6.365 1.768 1.768 0.353-0.354 9.193 8.133 19.801 21.923 24.398 28.995-0.707-1.061-1.061-1.768-0.707-1.768 8.486 14.497 13.79 27.58 19.094 46.32 0.354 0.354 0-1.414 0.707-0.353 3.536 14.851 4.597 27.227 4.243 38.541 2.829-19.094-3.536-48.796-14.851-72.133-1.414-2.829-1.414-0.707-2.829-3.889 0-1.061-1.061-3.182-1.768-4.597-14.144-23.337-31.47-39.956-51.978-53.038 1.414 0.707 4.243 2.829 4.244 2.475-38.188-25.105-82.387-28.641-118.807-20.862-2.475 1.061-3.536 2.122-6.365 3.536 5.304-1.768 8.486-2.122 13.437-3.183 1.061-1.061-4.597 0.354-2.122-0.707 0.354 0.354 4.95-0.707 6.011-0.353 0 0.354-1.414 0.707-1.768 1.06 11.669-2.475 23.691-2.829 33.945-2.121-6.011 0.354-16.972-0.707-20.508 1.061 3.536-0.354 8.486-0.707 11.668-0.354-4.243 0-12.022 0.354-15.558 0.707-0.354-0.354 5.657-1.061 1.768-1.06-1.768 0.354-4.597 0.354-5.657 1.414-30.409 2.829-60.111 18.74-80.973 37.481-4.243 3.536-9.193 7.425-12.375 11.314-7.779 8.84-12.729 17.68-18.387 25.459 3.536-7.425 11.315-18.74 20.508-28.287 9.193-9.547 19.094-17.68 24.398-21.923 0 1.414 8.486-5.304 11.669-7.425-2.122 1.768 1.414-0.707 2.121-0.354 11.315-6.718 20.508-9.193 30.763-13.083-2.475 0.707-4.597 1.414-4.951 1.061 2.475-0.707 3.889-1.414 3.536-1.768-9.901 2.829-25.459 9.547-37.834 16.972 22.276-15.204 50.564-24.398 78.497-24.751 27.934-0.707 55.16 6.365 76.729 17.68 14.497 6.365 28.287 18.033 39.249 29.348 3.182 2.829 0.707-0.707 5.304 4.243-1.414-0.707-2.475-1.414-0.707 0.707 2.829 3.182-0.707-2.475 3.889 3.182-0.354 0-1.768-1.768-1.768-1.061 12.376 10.961 21.923 30.762 27.58 43.846-1.414-5.304-4.95-12.729-7.779-18.033 8.486 15.558 11.315 24.751 14.851 38.541 1.414 1.061-0.707-4.95 0.707-2.121 0.354 2.122 0.707 8.84 2.122 9.9-1.061-6.718-2.829-14.851-4.243-16.265 1.061 0.707-1.768-8.133-3.536-10.254-0.707-5.657-5.657-15.558-9.901-22.984-15.204-29.702-42.431-54.099-72.839-67.536 0-0.707-1.768-1.414-2.476-2.121-30.055-12.729-66.122-16.265-100.773-8.133-35.006 8.486-67.889 28.641-91.227 57.636 1.061-3.536 9.901-10.254 10.255-13.083-10.254 10.961-21.215 25.459-28.641 41.016-7.779 15.558-12.022 31.47-13.79 43.138" fill="#94474f" fill-rule="nonzero" stroke="none" stroke-width="1" stroke-linecap="butt" stroke-linejoin="miter" stroke-miterlimit="10" stroke-dasharray="" stroke-dashoffset="0" font-family="none" font-weight="none" font-size="none" text-anchor="none" style="mix-blend-mode: normal" data-fill-palette-color="tertiary"></path></g><g transform="matrix(1,0,0,1,48,149.4525733272108)"><svg viewBox="0 0 224 61.09485334557834" height="61.09485334557834" width="224"><g><svg viewBox="0 0 224 61.09485334557834" height="61.09485334557834" width="224"><g><svg viewBox="0 0 224 61.09485334557834" height="61.09485334557834" width="224"><g><svg viewBox="0 0 224 61.09485334557834" height="61.09485334557834" width="224"><g id="textblocktransform"><svg viewBox="0 0 224 61.09485334557834" height="61.09485334557834" width="224" id="textblock"><g><svg viewBox="0 0 224 30.006175283033805" height="30.006175283033805" width="224"><g transform="matrix(1,0,0,1,0,0)"><svg width="224" viewBox="0.59 -31.88 308.34000000000003 41.3" height="30.006175283033805" data-palette-color="#ffffff"><path d="M0.59 0L12.3 0 12.62-1.95 8.15-2.78 9.69-23.61 18.07-0.76 21.19-1.22 30.49-24.51 31.86-2.95 27.81-1.81 27.54 0 40.63 0 40.87-1.95 36.43-2.78 35.16-27.59 39.26-28.52 39.5-30.37 29.86-30.37 28.13-26.44 20.63-7.64 14.23-25.63 12.33-30.37 2.49-30.37 2.25-28.52 6.71-27.49 4.93-2.95 0.85-1.81 0.59 0ZM46.56 0.59Q49.19 0.59 50.86-0.62 52.54-1.83 53.24-3.2L53.24-3.2 53.51-3.2 53.51-2.83Q53.51-2.03 53.89-1.28 54.27-0.54 55.12-0.05 55.98 0.44 57.3 0.44L57.3 0.44Q58.32 0.44 59.49 0.17L59.49 0.17Q60.25 0.02 60.62-0.02L60.62-0.02 60.94-2.12 59.71-2.34Q58.57-2.54 57.99-2.87 57.42-3.2 57.2-3.82 56.98-4.44 56.98-5.62L56.98-5.62 56.98-14.48Q56.98-18.38 55.58-20.18 54.17-21.97 50.95-21.97L50.95-21.97Q49.24-21.97 47.26-21.26 45.29-20.56 43.94-19.4 42.6-18.24 42.6-16.97L42.6-16.97Q42.6-15.38 43.58-14.92 44.55-14.45 45.99-14.45L45.99-14.45Q46.21-16.92 46.37-17.85 46.53-18.77 47.04-19.24 47.56-19.7 48.7-19.7L48.7-19.7Q51.02-19.7 52.02-17.86 53.02-16.02 53.02-13.18L53.02-13.18 53.02-11.84Q49.22-11.57 46.69-10.44 44.16-9.3 42.97-7.64 41.77-5.98 41.77-4.1L41.77-4.1Q41.77-2.66 42.42-1.6 43.06-0.54 44.16 0.02 45.26 0.59 46.56 0.59L46.56 0.59ZM53.02-10.45L53.02-4.59Q52.29-3.78 51.12-3.1 49.95-2.42 48.78-2.42L48.78-2.42Q47.92-2.42 47.3-2.86 46.68-3.3 46.36-3.96 46.04-4.61 46.04-5.25L46.04-5.25Q46.04-7.13 47.63-8.41 49.22-9.69 53.02-10.45L53.02-10.45ZM75.34 0L75.58-2.12 69.89-2.95 69.89-12.3Q70.14-14.04 70.86-15.23 71.58-16.43 72.46-17.03 73.33-17.63 74.07-17.63L74.07-17.63Q74.78-17.63 75.56-17.37 76.34-17.11 77.05-16.67L77.05-16.67Q78.44-17.85 78.44-19.38L78.44-19.38Q78.44-20.48 77.68-21.3 76.92-22.12 75.73-22.12L75.73-22.12Q74.63-22.12 73.51-21.37 72.38-20.63 71.38-19.14 70.38-17.65 69.75-15.53L69.75-15.53 69.28-15.53 69.77-21.14 69.21-21.73 62.2-20.83 61.86-18.97 65.84-17.77 65.84-2.78 62.1-1.81 61.86 0 75.34 0ZM82.61-18.63L82.51-6.35Q82.49-2.54 83.87-0.99 85.25 0.56 87.71 0.56L87.71 0.56Q89.76 0.56 91.47-0.39 93.18-1.34 94.33-3.03L94.33-3.03 93.82-4.35Q93.82-4.32 93.24-3.96 92.67-3.59 91.89-3.28 91.11-2.98 90.3-2.98L90.3-2.98Q89.01-2.98 88.22-3.42 87.44-3.86 87.08-4.91 86.71-5.96 86.71-7.79L86.71-7.79 86.78-18.58 93.52-18.58 93.74-20.73 86.83-20.73 86.83-26.54 85.54-26.54Q84.22-24.73 82.61-22.95 81-21.17 79.51-19.95L79.51-19.95 79.51-18.63 82.61-18.63ZM101.38-26.12Q102.16-26.12 102.86-26.53 103.55-26.93 103.96-27.61 104.36-28.3 104.36-29.1L104.36-29.1Q104.36-30.27 103.48-31.08 102.6-31.88 101.38-31.88L101.38-31.88Q100.21-31.88 99.34-31.09 98.48-30.3 98.48-29.15L98.48-29.15Q98.48-28.34 98.87-27.65 99.26-26.95 99.93-26.54 100.6-26.12 101.38-26.12L101.38-26.12ZM95.57 0L107.29 0 107.56-1.95 103.65-2.83 103.65-21 103.04-21.61 96.18-21.04 95.86-19.19 99.55-17.85 99.55-2.83 95.86-1.93 95.57 0ZM123.52 0L123.86-2.03 118.08-2.98 118.08-28.47Q118.32-28.49 119.14-28.55 119.96-28.61 120.57-28.61L120.57-28.61Q124.5-28.61 126.39-26.45 128.28-24.29 128.28-20.9L128.28-20.9Q128.28-17.63 126.35-15.95 124.43-14.28 120.5-14.18L120.5-14.18 119.2-14.16 119.64-12.13 120.35-12.11Q121.42-12.06 122.08-12.06L122.08-12.06Q125.06-12.06 127.65-13.29 130.24-14.53 131.79-16.75 133.34-18.97 133.34-21.78L133.34-21.78Q133.34-26.71 129.97-28.67 126.6-30.64 121.08-30.64L121.08-30.64Q118.32-30.64 115.54-30.35 112.76-30.05 109.46-29.57L109.46-29.57 109.22-27.69 113.39-26.95 113.39-2.95 109.31-1.81 109.05 0 123.52 0ZM146.91 0L147.15-2.12 141.46-2.95 141.46-12.3Q141.71-14.04 142.43-15.23 143.15-16.43 144.03-17.03 144.91-17.63 145.64-17.63L145.64-17.63Q146.35-17.63 147.13-17.37 147.91-17.11 148.62-16.67L148.62-16.67Q150.01-17.85 150.01-19.38L150.01-19.38Q150.01-20.48 149.25-21.3 148.5-22.12 147.3-22.12L147.3-22.12Q146.2-22.12 145.08-21.37 143.95-20.63 142.95-19.14 141.95-17.65 141.32-15.53L141.32-15.53 140.85-15.53 141.34-21.14 140.78-21.73 133.77-20.83 133.43-18.97 137.41-17.77 137.41-2.78 133.68-1.81 133.43 0 146.91 0ZM161.7 0.66Q164.53 0.66 166.88-0.78 169.22-2.22 170.58-4.83 171.93-7.45 171.93-10.77L171.93-10.77Q171.93-14.11 170.77-16.66 169.61-19.21 167.43-20.63 165.24-22.05 162.29-22.05L162.29-22.05Q159.5-22.05 157.07-20.65 154.65-19.26 153.16-16.61 151.67-13.96 151.67-10.4L151.67-10.4Q151.67-7.23 152.85-4.72 154.04-2.22 156.29-0.78 158.55 0.66 161.7 0.66L161.7 0.66ZM161.26-19.48Q163.43-19.48 164.86-17.88 166.29-16.28 166.94-13.84 167.59-11.4 167.59-8.76L167.59-8.76Q167.59-6.96 167.02-5.35 166.46-3.74 165.31-2.72 164.17-1.71 162.53-1.71L162.53-1.71Q160.26-1.71 158.8-3.2 157.33-4.69 156.67-7.06 156.01-9.42 156.01-12.13L156.01-12.13Q156.01-14.14 156.57-15.81 157.14-17.48 158.32-18.48 159.5-19.48 161.26-19.48L161.26-19.48ZM182.62 9.42Q185.36 9.42 187.97 8.25 190.58 7.08 192.2 5.19 193.83 3.3 193.83 1.22L193.83 1.22Q193.83-1.34 191.94-2.51 190.04-3.69 187.06-3.69L187.06-3.69 183.74-3.69Q181.11-3.69 180.19-4.14 179.28-4.59 179.28-5.44L179.28-5.44Q179.28-6.32 180.5-7.59L180.5-7.59Q180.79-7.52 181.43-7.43 182.06-7.35 182.69-7.35L182.69-7.35Q184.6-7.35 186.52-8.26 188.43-9.18 189.69-10.84 190.95-12.5 190.95-14.62L190.95-14.62Q190.95-15.45 190.68-16.41 190.41-17.36 190.12-18.02L190.12-18.02 190.12-18.43 193.12-17.46 193.51-17.46 194.46-20.17 193.97-20.73Q193.22-20.65 191.46-20.52 189.7-20.39 188.73-20.34L188.73-20.34Q186.6-21.88 183.6-21.88L183.6-21.88Q181.57-21.88 179.68-20.84 177.79-19.8 176.62-18.07 175.44-16.33 175.44-14.38L175.44-14.38Q175.44-12.87 176.14-11.5 176.84-10.13 177.79-9.24 178.74-8.35 179.42-8.18L179.42-8.18 179.42-8.01Q178.52-7.64 177.56-6.93 176.59-6.23 175.97-5.43 175.35-4.64 175.35-4L175.35-4Q175.35-2.95 175.96-2.08 176.57-1.2 177.69-0.66L177.69-0.66 177.69-0.44Q173.78 1.78 173.78 3.96L173.78 3.96Q173.78 6.86 176.29 8.14 178.79 9.42 182.62 9.42L182.62 9.42ZM183.01-20.09Q184.23-20.09 185.12-19.19 186.02-18.29 186.49-16.92 186.97-15.55 186.97-14.16L186.97-14.16Q186.97-11.67 186.03-10.47 185.09-9.28 183.38-9.28L183.38-9.28Q182.45-9.28 181.51-9.99 180.57-10.69 179.96-11.96 179.35-13.23 179.35-14.84L179.35-14.84Q179.35-17.31 180.27-18.7 181.18-20.09 183.01-20.09L183.01-20.09ZM179.35-0.07L183.6-0.07Q185.97-0.07 187.24 0.11 188.51 0.29 189.1 0.83 189.7 1.37 189.7 2.44L189.7 2.44Q189.7 4.71 188.13 5.76 186.55 6.81 183.94 6.81L183.94 6.81Q178.08 6.81 178.08 2.64L178.08 2.64Q178.08 1.64 178.36 1.04 178.64 0.44 179 0.15 179.35-0.15 179.35-0.07L179.35-0.07ZM209.38 0L209.62-2.12 203.93-2.95 203.93-12.3Q204.18-14.04 204.9-15.23 205.62-16.43 206.5-17.03 207.37-17.63 208.11-17.63L208.11-17.63Q208.82-17.63 209.6-17.37 210.38-17.11 211.09-16.67L211.09-16.67Q212.48-17.85 212.48-19.38L212.48-19.38Q212.48-20.48 211.72-21.3 210.96-22.12 209.77-22.12L209.77-22.12Q208.67-22.12 207.55-21.37 206.42-20.63 205.42-19.14 204.42-17.65 203.79-15.53L203.79-15.53 203.32-15.53 203.81-21.14 203.25-21.73 196.24-20.83 195.9-18.97 199.88-17.77 199.88-2.78 196.14-1.81 195.9 0 209.38 0ZM218.8 0.59Q221.43 0.59 223.11-0.62 224.78-1.83 225.49-3.2L225.49-3.2 225.76-3.2 225.76-2.83Q225.76-2.03 226.13-1.28 226.51-0.54 227.37-0.05 228.22 0.44 229.54 0.44L229.54 0.44Q230.57 0.44 231.74 0.17L231.74 0.17Q232.49 0.02 232.86-0.02L232.86-0.02 233.18-2.12 231.96-2.34Q230.81-2.54 230.24-2.87 229.66-3.2 229.44-3.82 229.22-4.44 229.22-5.62L229.22-5.62 229.22-14.48Q229.22-18.38 227.82-20.18 226.42-21.97 223.19-21.97L223.19-21.97Q221.48-21.97 219.51-21.26 217.53-20.56 216.19-19.4 214.84-18.24 214.84-16.97L214.84-16.97Q214.84-15.38 215.82-14.92 216.8-14.45 218.24-14.45L218.24-14.45Q218.46-16.92 218.62-17.85 218.77-18.77 219.29-19.24 219.8-19.7 220.95-19.7L220.95-19.7Q223.27-19.7 224.27-17.86 225.27-16.02 225.27-13.18L225.27-13.18 225.27-11.84Q221.46-11.57 218.93-10.44 216.41-9.3 215.21-7.64 214.01-5.98 214.01-4.1L214.01-4.1Q214.01-2.66 214.66-1.6 215.31-0.54 216.41 0.02 217.5 0.59 218.8 0.59L218.8 0.59ZM225.27-10.45L225.27-4.59Q224.54-3.78 223.36-3.1 222.19-2.42 221.02-2.42L221.02-2.42Q220.17-2.42 219.54-2.86 218.92-3.3 218.6-3.96 218.29-4.61 218.29-5.25L218.29-5.25Q218.29-7.13 219.87-8.41 221.46-9.69 225.27-10.45L225.27-10.45ZM245.43 0L245.7-1.93 242.21-2.78 242.21-16.43Q243.11-17.46 244.38-18.01 245.65-18.55 247.02-18.55L247.02-18.55Q248.19-18.55 249.14-18.02 250.09-17.48 250.64-16.5 251.19-15.53 251.19-14.28L251.19-14.28 251.19-2.78 247.99-1.81 247.73 0 258.54 0 258.79-1.93 255.17-2.78 255.17-16.11Q256.25-17.26 257.31-17.91 258.37-18.55 259.84-18.55L259.84-18.55Q261.74-18.55 262.84-17.33 263.94-16.11 263.94-14.28L263.94-14.28 263.94-2.76 260.89-1.78 260.71 0 271.09 0 271.41-1.93 268.04-2.81 268.04-14.87Q268.04-21.68 262.28-21.68L262.28-21.68Q260.1-21.68 258.24-20.59 256.37-19.51 255.08-17.85L255.08-17.85 254.78-17.85Q254.24-19.92 252.74-20.9 251.24-21.88 249.39-21.88L249.39-21.88Q247.24-21.88 245.3-20.78 243.36-19.68 242.06-18.07L242.06-18.07 241.84-18.07 242.28-21.14 241.84-21.66 234.42-20.63 234.18-18.8 238.08-17.55 238.08-2.78 234.42-1.81 234.18 0 245.43 0ZM282.27 0.73Q284.66 0.73 286.75-0.13 288.84-1 290.3-2.54L290.3-2.54 289.79-3.83Q288.59-3.2 287.69-2.91 286.79-2.61 286.1-2.55 285.42-2.49 284.25-2.49L284.25-2.49Q282.1-2.49 280.6-3.72 279.1-4.96 278.31-6.88 277.53-8.81 277.44-10.86L277.44-10.86 289.25-11.01Q289.4-11.65 289.52-12.63 289.64-13.62 289.64-14.18L289.64-14.18Q289.64-16.67 288.78-18.42 287.91-20.17 286.42-21.06 284.93-21.95 283.12-21.95L283.12-21.95Q280.68-21.95 278.36-20.56 276.04-19.17 274.57-16.55 273.09-13.94 273.09-10.45L273.09-10.45Q273.09-6.91 274.38-4.37 275.68-1.83 277.79-0.55 279.9 0.73 282.27 0.73L282.27 0.73ZM281.93-19.56Q285.3-19.56 285.3-15.01L285.3-15.01Q285.3-14.65 285.26-14.12 285.22-13.6 285.15-13.33L285.15-13.33 277.48-12.77Q277.61-15.01 278.28-16.54 278.95-18.07 279.93-18.81 280.9-19.56 281.93-19.56L281.93-19.56ZM305.83 0L306.07-2.12 300.38-2.95 300.38-12.3Q300.63-14.04 301.35-15.23 302.07-16.43 302.95-17.03 303.82-17.63 304.56-17.63L304.56-17.63Q305.27-17.63 306.05-17.37 306.83-17.11 307.54-16.67L307.54-16.67Q308.93-17.85 308.93-19.38L308.93-19.38Q308.93-20.48 308.17-21.3 307.41-22.12 306.22-22.12L306.22-22.12Q305.12-22.12 304-21.37 302.87-20.63 301.87-19.14 300.87-17.65 300.24-15.53L300.24-15.53 299.77-15.53 300.26-21.14 299.7-21.73 292.69-20.83 292.35-18.97 296.33-17.77 296.33-2.78 292.59-1.81 292.35 0 305.83 0Z" opacity="1" transform="matrix(1,0,0,1,0,0)" fill="#ffffff" class="undefined-text-0" data-fill-palette-color="primary" id="text-0"></path></svg></g></svg></g><g transform="matrix(1,0,0,1,0,37.08991311915129)"><svg viewBox="0 0 224 24.004940226427046" height="24.004940226427046" width="224"><g transform="matrix(1,0,0,1,0,0)"><svg width="224" viewBox="2.25 -37.5 466.57 50" height="24.004940226427046" data-palette-color="#67a0b7"><path d="M24.05-35L31.85-4.9 40.15-35 43.4-35 33.15 0 30.1 0 22.55-29.8 14.3 0 11.2 0 2.25-35 5.4-35 13-5.05 21.25-35 24.05-35ZM59.49-12.3L59.49-11.5Q59.49-2.7 67.89-2.7L67.89-2.7Q71.44-2.7 74.39-3.65L74.39-3.65Q75.14-3.9 75.44-4.05L75.44-4.05 76.19-1.4Q74.44-0.35 69.84 0.1L69.84 0.1Q68.54 0.2 67.09 0.2L67.09 0.2Q62.89 0.2 60.09-1.9L60.09-1.9Q56.24-4.75 56.24-11.4 56.24-18.05 59.72-21.63 63.19-25.2 68.14-25.2 73.09-25.2 75.59-22L75.59-22Q77.49-19.45 77.49-15.25L77.49-15.25Q77.49-14.25 77.39-13.15L77.39-13.15 59.54-13.15Q59.49-12.75 59.49-12.3L59.49-12.3ZM68.34-22.1L68.34-22.1Q65.24-22.1 63.04-20.23 60.84-18.35 59.99-15.4L59.99-15.4 74.54-15.4Q74.29-20.95 70.24-21.85L70.24-21.85Q69.34-22.1 68.34-22.1ZM98.24-37.5L98.24-23Q101.19-25.45 104.94-25.45L104.94-25.45Q111.34-25.45 113.89-19.8L113.89-19.8Q114.89-17.5 114.89-13.85L114.89-13.85Q114.89-7.1 111.34-3.55 107.79 0 102.14 0L102.14 0Q98.84 0 97.11-0.45 95.39-0.9 94.99-1.15L94.99-1.15 94.99-37.25 98.24-37.5ZM98.24-21.25L98.24-21.25 98.24-2.8Q99.69-2.45 101.39-2.45L101.39-2.45Q106.39-2.45 109.01-5.35 111.64-8.25 111.64-13.5 111.64-18.75 108.99-21L108.99-21Q107.14-22.55 104.19-22.55 101.24-22.55 98.24-21.25ZM162.72 0L162.72-35 171.72-35Q182.22-35 185.42-26.2L185.42-26.2Q186.62-23 186.62-17.78 186.62-12.55 185.47-8.97 184.32-5.4 182.22-3.4 180.12-1.4 177.15-0.7 174.17 0 170.47 0L170.47 0 162.72 0ZM171.47-32.25L166.12-32.25 166.12-2.75 170.22-2.75Q172.82-2.75 175.22-3.2L175.22-3.2Q183.22-4.6 183.22-18.05L183.22-18.05Q183.22-25.6 179.72-29.2L179.72-29.2Q176.67-32.25 171.47-32.25L171.47-32.25ZM207.12-12.3L207.12-11.5Q207.12-2.7 215.52-2.7L215.52-2.7Q219.07-2.7 222.02-3.65L222.02-3.65Q222.77-3.9 223.07-4.05L223.07-4.05 223.82-1.4Q222.07-0.35 217.47 0.1L217.47 0.1Q216.17 0.2 214.72 0.2L214.72 0.2Q210.52 0.2 207.72-1.9L207.72-1.9Q203.87-4.75 203.87-11.4 203.87-18.05 207.34-21.63 210.82-25.2 215.77-25.2 220.72-25.2 223.22-22L223.22-22Q225.12-19.45 225.12-15.25L225.12-15.25Q225.12-14.25 225.02-13.15L225.02-13.15 207.17-13.15Q207.12-12.75 207.12-12.3L207.12-12.3ZM215.97-22.1L215.97-22.1Q212.87-22.1 210.67-20.23 208.47-18.35 207.62-15.4L207.62-15.4 222.17-15.4Q221.92-20.95 217.87-21.85L217.87-21.85Q216.97-22.1 215.97-22.1ZM249.51 0L240.26-25 243.91-25.25 251.16-3.85 259.01-25 262.61-25.25 252.51 0 249.51 0ZM280.5-12.3L280.5-11.5Q280.5-2.7 288.9-2.7L288.9-2.7Q292.45-2.7 295.4-3.65L295.4-3.65Q296.15-3.9 296.45-4.05L296.45-4.05 297.2-1.4Q295.45-0.35 290.85 0.1L290.85 0.1Q289.55 0.2 288.1 0.2L288.1 0.2Q283.9 0.2 281.1-1.9L281.1-1.9Q277.25-4.75 277.25-11.4 277.25-18.05 280.73-21.63 284.2-25.2 289.15-25.2 294.1-25.2 296.6-22L296.6-22Q298.5-19.45 298.5-15.25L298.5-15.25Q298.5-14.25 298.4-13.15L298.4-13.15 280.55-13.15Q280.5-12.75 280.5-12.3L280.5-12.3ZM289.35-22.1L289.35-22.1Q286.25-22.1 284.05-20.23 281.85-18.35 281-15.4L281-15.4 295.55-15.4Q295.3-20.95 291.25-21.85L291.25-21.85Q290.35-22.1 289.35-22.1ZM319.75 0L316.5 0 316.5-37.25 319.75-37.5 319.75 0ZM338.39-6.4L338.39-6.4Q337.49-8.8 337.49-12L337.49-12Q337.49-18.15 340.94-21.68 344.39-25.2 349.59-25.2L349.59-25.2Q357.74-25.2 360.29-18.6L360.29-18.6Q361.24-16.2 361.24-13L361.24-13Q361.24-6.85 357.79-3.33 354.34 0.2 349.14 0.2L349.14 0.2Q340.99 0.2 338.39-6.4ZM340.74-12.35Q340.74-7.75 343.12-5.23 345.49-2.7 349.24-2.7 352.99-2.7 355.49-5.38 357.99-8.05 357.99-12.65 357.99-17.25 355.64-19.78 353.29-22.3 349.52-22.3 345.74-22.3 343.24-19.63 340.74-16.95 340.74-12.35ZM395.28-3.5Q393.63-1.85 391.61-1.03 389.58-0.2 388.13-0.1 386.68 0 385.28 0 383.88 0 382.23-0.25L382.23-0.25 382.23 12.25 378.98 12.5 378.98-23.7Q380.08-24.05 382.36-24.75 384.63-25.45 387.21-25.45 389.78-25.45 391.66-25.03 393.53-24.6 395.13-23.4L395.13-23.4Q398.88-20.5 398.88-13.8 398.88-7.1 395.28-3.5L395.28-3.5ZM382.23-21.7L382.23-2.8Q383.73-2.45 385.43-2.45L385.43-2.45Q390.33-2.45 392.98-5.35 395.63-8.25 395.63-13.5 395.63-18.75 392.93-21L392.93-21Q391.03-22.55 388.06-22.55 385.08-22.55 382.23-21.7L382.23-21.7ZM418.98-12.3L418.98-11.5Q418.98-2.7 427.38-2.7L427.38-2.7Q430.93-2.7 433.88-3.65L433.88-3.65Q434.63-3.9 434.93-4.05L434.93-4.05 435.68-1.4Q433.93-0.35 429.33 0.1L429.33 0.1Q428.03 0.2 426.58 0.2L426.58 0.2Q422.38 0.2 419.58-1.9L419.58-1.9Q415.73-4.75 415.73-11.4 415.73-18.05 419.2-21.63 422.68-25.2 427.63-25.2 432.58-25.2 435.08-22L435.08-22Q436.98-19.45 436.98-15.25L436.98-15.25Q436.98-14.25 436.88-13.15L436.88-13.15 419.03-13.15Q418.98-12.75 418.98-12.3L418.98-12.3ZM427.83-22.1L427.83-22.1Q424.73-22.1 422.53-20.23 420.33-18.35 419.48-15.4L419.48-15.4 434.03-15.4Q433.78-20.95 429.73-21.85L429.73-21.85Q428.83-22.1 427.83-22.1ZM468.82-24.5L467.52-21.5Q466.72-21.95 465.82-21.95 464.92-21.95 464.82-21.9L464.82-21.9Q462.92-21.9 461-20.53 459.07-19.15 457.72-17.45L457.72-17.45 457.72 0 454.47 0 454.47-25 457.72-25.25 457.72-19.65Q459.57-22 460.87-22.95L460.87-22.95Q463.27-24.75 465.47-24.85L465.47-24.85Q465.77-24.9 466.57-24.9 467.37-24.9 468.82-24.5L468.82-24.5Z" opacity="1" transform="matrix(1,0,0,1,0,0)" fill="#67a0b7" class="undefined-text-1" data-fill-palette-color="secondary" id="text-1"></path></svg></g></svg></g></svg></g></svg></g><g></g></svg></g></svg></g></svg></g></svg></g><defs></defs></svg><rect width="320" height="360" fill="none" stroke="none" visibility="hidden"></rect></g></svg></g></svg>