<svg xmlns="http://www.w3.org/2000/svg" version="1.1" xmlns:xlink="http://www.w3.org/1999/xlink" xmlns:svgjs="http://svgjs.dev/svgjs" width="2000" height="2250" viewBox="0 0 2000 2250"><g transform="matrix(1,0,0,1,0,0)"><svg viewBox="0 0 320 360" data-background-color="#97978d" preserveAspectRatio="xMidYMid meet" height="2250" width="2000" xmlns="http://www.w3.org/2000/svg" xmlns:xlink="http://www.w3.org/1999/xlink"><g id="tight-bounds" transform="matrix(1,0,0,1,0,0)"><svg viewBox="0 0 320 360" height="360" width="320"><g><svg></svg></g><g><svg viewBox="0 0 320 360" height="360" width="320"><g><path xmlns="http://www.w3.org/2000/svg" d="M320 187.111c0-45.764-20.238-86.866-52.203-114.908-28.043-31.964-69.145-52.203-114.908-52.203-84.302 0-152.889 68.587-152.889 152.889 0 45.753 20.231 86.848 52.185 114.891 28.043 31.975 69.152 52.22 114.926 52.22 0.299 0 0.59-0.021 0.889-0.021 0.299 0 0.59 0.021 0.889 0.021 83.456 0 151.111-67.655 151.111-151.111 0-0.299-0.021-0.59-0.021-0.889 0-0.299 0.021-0.59 0.021-0.889zM59.833 263.097c-15.093-21.255-24.071-47.143-24.256-75.097 0.48-72.928 59.492-131.943 132.423-132.423 27.954 0.185 53.845 9.163 75.097 24.256 24.366 23.627 39.57 56.64 39.57 93.056 0 71.559-58.219 129.778-129.778 129.778-36.416 0-69.429-15.204-93.056-39.57zM3.556 172.889c0-82.343 66.99-149.333 149.333-149.333 35.051 0 67.292 12.167 92.8 32.462-22.98-13.824-49.863-21.796-78.578-21.796-84.302 0-152.889 68.587-152.889 152.889 0 28.708 7.968 55.584 21.785 78.56-20.288-25.5-32.452-57.739-32.451-92.782zM167.111 318.667c-35.84 0-68.363-14.418-92.107-37.743 21.952 15.89 48.864 25.298 77.885 25.298 73.522 0 133.333-59.812 133.333-133.333 0-29.02-9.408-55.932-25.298-77.885 23.324 23.744 37.742 56.267 37.743 92.107 0 72.54-59.015 131.556-131.556 131.556z" fill="#000000" fill-rule="nonzero" stroke="none" stroke-width="1" stroke-linecap="butt" stroke-linejoin="miter" stroke-miterlimit="10" stroke-dasharray="" stroke-dashoffset="0" font-family="none" font-weight="none" font-size="none" text-anchor="none" style="mix-blend-mode: normal" data-fill-palette-color="tertiary"></path></g><g transform="matrix(1,0,0,1,64,160.12619360116872)"><svg viewBox="0 0 192 39.747612797662526" height="39.747612797662526" width="192"><g><svg viewBox="0 0 192 39.747612797662526" height="39.747612797662526" width="192"><g><svg viewBox="0 0 192 39.747612797662526" height="39.747612797662526" width="192"><g><svg viewBox="0 0 192 39.747612797662526" height="39.747612797662526" width="192"><g id="textblocktransform"><svg viewBox="0 0 192 39.747612797662526" height="39.747612797662526" width="192" id="textblock"><g><svg viewBox="0 0 192 21.437963059584682" height="21.437963059584682" width="192"><g transform="matrix(1,0,0,1,0,0)"><svg width="192" viewBox="0.7799999713897705 -39.060001373291016 467.8800048828125 52.2400016784668" height="21.437963059584682" data-palette-color="#ffffff"><path d="M5.27 0.95L5.27 0.95Q3.52-0.66 3.52-3.05L3.52-3.05Q3.52-6.62 7.74-8.91L7.74-8.91Q4.98-10.84 3.71-15.01L3.71-15.01Q3.3-16.31 2.88-16.77L2.88-16.77Q2.27-17.5 0.78-18.24L0.78-18.24Q2-18.8 2.65-19.68 3.3-20.56 3.77-21.97 4.25-23.39 5.11-24.68 5.98-25.98 7.35-26.95L7.35-26.95Q10.35-29.05 15.09-29.05L15.09-29.05Q16.6-29.05 18.24-28.74L18.24-28.74Q18.58-31.4 20.61-33.25L20.61-33.25Q22.61-35.13 25.29-35.13L25.29-35.13Q28.44-35.13 30.59-33.5L30.59-33.5Q31.76-32.62 32.93-32.84L32.93-32.84Q33.03-30.88 31.42-30.32L31.42-30.32Q31.15-27.03 28.56-27.03L28.56-27.03Q27.54-27.03 27.32-27.17L27.32-27.17Q27.69-27.49 27.69-27.99 27.69-28.49 27.27-28.86L27.27-28.86Q26.76-27.91 24.98-27.91L24.98-27.91Q24-27.91 23.44-28.83L23.44-28.83Q24.37-29.13 24.9-29.72 25.44-30.32 25.44-30.83L25.44-30.83Q25.44-32.18 24.02-32.18L24.02-32.18Q21.29-32.18 20.83-27.93L20.83-27.93Q25.27-26.03 26.49-21.95L26.49-21.95Q27.29-19.19 29.47-18.24L29.47-18.24Q27.56-17.29 26.95-16.11L26.95-16.11Q26.71-15.65 26.51-15.01L26.51-15.01Q25.2-10.86 22.39-8.9 19.58-6.93 15.16-6.93L15.16-6.93Q12.35-6.93 10.28-7.62L10.28-7.62Q9.47-7.1 9.47-6.48 9.47-5.86 9.72-5.43 9.96-5 10.6-4.66L10.6-4.66Q11.84-4 15.33-3.49L15.33-3.49Q16.92-3.17 18.6-5.54L18.6-5.54Q18.7-4.3 19.17-3.67 19.63-3.05 20.19-2.98L20.19-2.98Q26.93-1.98 28.91 1.42L28.91 1.42Q29.59 2.56 29.59 4.36 29.59 6.15 28.44 7.85 27.29 9.55 25.34 10.74L25.34 10.74Q21.29 13.18 15.38 13.18L15.38 13.18Q8.45 13.18 4.79 10.91L4.79 10.91Q1.64 8.94 1.64 5.86L1.64 5.86Q1.64 3.81 3.71 1.98L3.71 1.98Q4.39 1.39 5.27 0.95ZM12.79-11.38Q13.33-10.62 13.87-10.41 14.4-10.21 15.12-10.21 15.84-10.21 16.38-10.41 16.92-10.62 17.29-11.13L17.29-11.13Q17.99-12.13 17.99-14.5L17.99-14.5 17.99-21.26Q17.99-23.63 17.46-24.39 16.92-25.15 16.38-25.35 15.84-25.56 15.12-25.56 14.4-25.56 13.87-25.35 13.33-25.15 12.99-24.66L12.99-24.66Q12.26-23.63 12.26-21.26L12.26-21.26 12.26-14.5Q12.26-12.13 12.79-11.38ZM20.36-24.71L20.36-11.55Q21.48-11.94 21.66-13.96L21.66-13.96Q21.83-15.87 21.83-18.24L21.83-18.24Q21.83-21.9 21.63-22.92L21.63-22.92Q21.34-24.29 20.36-24.71L20.36-24.71ZM7.64-11.55L7.64-11.55Q8.13-11.91 8.13-12.4L8.13-12.4Q8.13-13.04 7.96-13.62L7.96-13.62Q7.3-15.87 7.3-18.24L7.3-18.24Q7.3-20.58 7.96-22.83L7.96-22.83Q8.13-23.41 8.13-23.75L8.13-23.75 8.13-24.34Q8.13-24.56 7.93-24.71L7.93-24.71Q6.93-23.49 6.48-21.92 6.03-20.36 5.76-19.17L5.76-19.17Q5.66-18.8 4.39-18.24L4.39-18.24Q5.69-17.6 5.76-17.29L5.76-17.29 6.25-15.23Q6.88-12.65 7.64-11.55ZM6.4-2.86L6.4-2.86Q6.18-2.64 6.18-2.22L6.18-2.22Q6.27 0.42 13.7 1.76L13.7 1.76Q14.55 1.95 14.92 3.61L14.92 3.61Q15.04 3.08 15.88 2.72 16.72 2.37 17.02 2.39L17.02 2.39Q20.7 2.83 22 3.22L22 3.22Q24.29 3.93 25.34 5.32L25.34 5.32Q25.63 4.98 25.63 4.44 25.63 3.91 25.1 3.36 24.56 2.81 23.34 2.39L23.34 2.39Q21.24 1.64 17.65 1.22 14.06 0.81 12.61 0.49 11.16 0.17 9.94-0.29L9.94-0.29Q7.28-1.34 6.4-2.86ZM7.71 2.51L7.71 2.51Q5.98 3.27 5.98 5.35L5.98 5.35Q5.98 7.01 8.5 8.35L8.5 8.35Q11.3 9.86 15.75 9.86L15.75 9.86Q21.22 9.86 22.85 7.98L22.85 7.98Q23.32 7.47 23.32 6.9 23.32 6.32 22.77 5.88 22.22 5.44 21.34 5.18L21.34 5.18Q20.04 4.74 17.26 4.42L17.26 4.42Q15.92 4.27 13.94 6.4L13.94 6.4Q13.94 5.03 13.49 4.42 13.04 3.81 12.6 3.76L12.6 3.76Q9.77 3.39 7.71 2.51ZM36.64-0.29L36.64-0.29Q35.52 0.49 34.08 0.49 32.64 0.49 31.99-0.18 31.35-0.85 31.35-1.46L31.35-1.46Q31.35-2.27 31.61-2.64L31.61-2.64Q32.15-2.22 32.98-2.22L32.98-2.22Q34.54-2.22 35.01-3.74L35.01-3.74 35.01-11.13Q35.01-12.26 34.57-12.79L34.57-12.79Q33.79-13.75 32.03-14.6L32.03-14.6Q35.01-15.97 35.01-18.8L35.01-18.8 35.01-21.36Q35.01-23.44 33.59-23.61L33.59-23.61Q33.18-23.66 32.54-23.66 31.91-23.66 31.37-23.24L31.37-23.24Q31.03-23.71 31.03-24.21 31.03-24.71 31.28-25.33 31.54-25.95 32.08-26.51L32.08-26.51Q33.35-27.83 35.04-27.83 36.74-27.83 37.86-27.29L37.86-27.29Q39.21-28.81 40.74-28.81L40.74-28.81Q43.14-28.81 43.14-26.17L43.14-26.17 43.14-22.83Q45.58-28.83 50.9-28.83L50.9-28.83Q53.29-28.83 54.78-27.37L54.78-27.37Q56.32-25.88 56.32-23.24L56.32-23.24 56.32-22.9Q56.32-22.73 56.27-22.2 56.22-21.68 56.31-21.14 56.39-20.61 56.59-20.26L56.59-20.26Q56.86-19.75 57.59-19.46L57.59-19.46Q57.42-18.8 56.8-18.27 56.17-17.75 55.42-17.75L55.42-17.75 54.95-17.75Q54-16.55 52.29-16.06L52.29-16.06Q51.8-15.92 51.23-15.92 50.66-15.92 50.23-16.17 49.8-16.43 49.75-16.72L49.75-16.72Q50.22-16.94 50.22-17.6L50.22-17.6 50.22-17.72Q50.02-17.68 49.88-17.68L49.88-17.68 49.63-17.68Q48.83-17.68 48.18-18.29 47.53-18.9 47.34-19.82L47.34-19.82Q48.65-19.78 49.63-20.8L49.63-20.8Q50.51-21.7 50.51-22.66L50.51-22.66Q50.51-24.9 48.56-24.9L48.56-24.9Q46.87-24.9 45.16-22.22L45.16-22.22Q43.55-19.75 43.14-17.11L43.14-17.11 43.14-3.91Q43.41-3.05 43.97-2.64 44.53-2.22 45.51-2.22 46.48-2.22 47.02-2.64L47.02-2.64Q47.29-2.27 47.29-1.56 47.29-0.85 46.64-0.18 45.99 0.49 44.47 0.49 42.94 0.49 41.55-0.34L41.55-0.34Q40.57 0.49 39.18 0.49 37.79 0.49 36.64-0.29ZM38.75-11.88Q38.77-12.7 38.78-13.26 38.79-13.82 38.79-14.16L38.79-14.16 38.79-14.82Q38.79-15.19 38.78-15.76 38.77-16.33 38.75-17.05 38.74-17.77 38.72-18.46L38.72-18.46Q38.57-21 38.17-21.72 37.77-22.44 37.35-22.71L37.35-22.71 37.35-21.12Q37.35-17.02 37.17-16.3 36.98-15.58 36.58-15.22 36.18-14.87 35.4-14.6L35.4-14.6Q36.86-14.09 37.06-13.35L37.06-13.35Q37.35-12.18 37.35-8.08L37.35-8.08 37.35-6.49Q38.47-7.23 38.62-9.47L38.62-9.47Q38.74-11.06 38.75-11.88ZM80.37-7.37L80.37-7.37Q80.9-8.4 82.34-8.4L82.34-8.4Q83.32-8.4 83.86-7.59L83.86-7.59Q84.3-6.96 84.3-6.04 84.3-5.13 83.83-4.2 83.37-3.27 82.56-2.51 81.76-1.76 80.72-1.17 79.68-0.59 78.51-0.2L78.51-0.2Q76.09 0.61 73.48 0.61 70.87 0.61 68.59-0.26 66.3-1.12 64.67-2.69L64.67-2.69Q61.47-5.76 60.76-11.13L60.76-11.13Q60.59-12.33 60.2-12.84L60.2-12.84Q59.47-13.75 57.78-14.58L57.78-14.58Q59.91-15.53 60.49-17.63L60.49-17.63Q60.66-18.21 60.76-18.8L60.76-18.8Q61.37-23.1 65.11-26.12L65.11-26.12Q68.72-29.05 73.19-29.05L73.19-29.05Q77.83-29.05 81.22-25.78L81.22-25.78Q84.74-22.41 84.74-17.5L84.74-17.5Q84.74-17.33 84.72-17.16 84.71-16.99 84.74-16.85L84.74-16.85Q84.79-16.53 85.13-16.48L85.13-16.48Q85.57-15.92 85.57-15.28L85.57-15.28Q85.57-13.82 84-13.55L84-13.55Q83.61-13.48 82.78-13.35L82.78-13.35 69.01-11.16 69.01-8.81Q69.01-5.98 70.72-4.32L70.72-4.32Q72.33-2.73 74.8-2.73L74.8-2.73Q77.41-2.73 79-3.81L79-3.81Q80.49-4.83 80.49-6.49L80.49-6.49Q80.49-6.88 80.37-7.37ZM69.01-14.11L76.09-15.26 76.09-22.09Q76.09-23.71 75.46-24.46L75.46-24.46Q74.34-25.76 73.24-25.76 72.14-25.76 71.41-25.43 70.67-25.1 70.14-24.39L70.14-24.39Q69.01-22.9 69.01-19.75L69.01-19.75 69.01-14.11ZM78.19-15.63L79.71-15.87 79.71-16.63Q79.71-21.17 78.95-22.12L78.95-22.12Q78.61-22.53 78.19-22.73L78.19-22.73 78.19-15.63ZM65.03-6.47L65.03-6.47Q65.38-6.74 65.38-7.08L65.38-7.08Q65.38-7.62 65.16-8.45L65.16-8.45Q64.16-12.28 64.16-13.78 64.16-15.28 64.25-16.13 64.35-16.97 64.52-17.82L64.52-17.82Q64.81-19.48 65.16-20.75L65.16-20.75Q65.38-21.58 65.38-21.88L65.38-21.88Q65.38-22.46 65.03-22.73L65.03-22.73Q64.01-21.51 63.47-19.46 62.93-17.41 62.59-15.84L62.59-15.84Q62.47-15.19 61.15-14.58L61.15-14.58Q62.47-13.96 62.59-13.35L62.59-13.35Q63.5-9.23 64.08-8.11 64.67-6.98 65.03-6.47ZM117.42-25.17L117.42-25.17Q116.89-25.51 115.72-25.51L115.72-25.51Q113.37-25.51 112.18-22.34L112.18-22.34 111.42-20.21Q110.59-17.9 110.58-17.04 110.56-16.19 110.87-15.66 111.17-15.14 112.25-14.58L112.25-14.58Q109.61-13.84 108.66-12.11L108.66-12.11Q108.37-11.57 108.15-10.99L108.15-10.99 104.09 0.02Q101.73 6.84 99.7 9.25L99.7 9.25Q97.84 11.47 95.06 11.47L95.06 11.47Q92.94 11.47 91.06 10.11L91.06 10.11Q88.91 8.57 88.91 6.49L88.91 6.49Q88.91 5.2 89.59 4.53 90.28 3.86 90.85 3.86 91.42 3.86 91.64 3.87 91.86 3.88 92.08 3.96L92.08 3.96Q92.52 4.15 92.91 4.83L92.91 4.83Q92.4 5.81 93.57 6.98L93.57 6.98Q94.67 8.13 95.63 8.13 96.6 8.13 97.25 7.76 97.89 7.4 98.41 6.64L98.41 6.64Q99.53 4.98 99.53 1.88L99.53 1.88Q99.53 0.2 98.63-1.83L98.63-1.83Q98.38-2.51 98.04-3.27L98.04-3.27 94.57-11.08Q94.01-12.33 92.88-13.29 91.74-14.26 90.32-14.58L90.32-14.58Q92.01-15.43 92.01-16.82L92.01-16.82Q92.01-17.82 91.2-19.78L91.2-19.78 89.76-23.24Q89.13-24.66 88.71-25.02L88.71-25.02Q87.98-25.61 87.02-25.61 86.05-25.61 85.51-25.2L85.51-25.2Q85.22-25.49 85.21-26.05 85.2-26.61 85.34-26.99 85.49-27.37 85.83-27.66L85.83-27.66Q86.56-28.32 87.94-28.32 89.32-28.32 90.54-27.44L90.54-27.44Q91.55-28.32 92.99-28.32 94.43-28.32 95.52-27.51L95.52-27.51Q96.62-28.32 97.99-28.32 99.36-28.32 100.15-27.67 100.94-27.03 100.97-26.39L100.97-26.39Q100.99-25.44 100.65-25.1L100.65-25.1Q100.07-25.54 99.43-25.54 98.8-25.54 98.39-25.17 97.99-24.8 98.04-23.97L98.04-23.97 103.68-8.74 109.03-24.39Q108.76-25.63 107.24-25.63L107.24-25.63Q106.29-25.63 105.44-25.17L105.44-25.17Q105.19-25.63 105.2-26.37 105.22-27.1 105.89-27.71 106.56-28.32 107.72-28.32 108.88-28.32 109.71-27.54L109.71-27.54Q110.59-28.32 111.69-28.32 112.79-28.32 113.69-27.64L113.69-27.64Q114.52-28.32 115.53-28.32 116.55-28.32 117.14-27.73 117.74-27.15 117.72-26.51L117.72-26.51Q117.67-25.54 117.42-25.17ZM98.41-12.08L93.91-22.73Q93.35-22.36 93.36-21.8 93.38-21.24 93.41-20.94 93.45-20.63 93.55-20.21L93.55-20.21Q93.77-19.43 94.44-17.91 95.11-16.38 95.15-16 95.18-15.63 94.89-15.17 94.6-14.72 94.18-14.58L94.18-14.58Q95.74-14.28 96.11-13.48L96.11-13.48Q96.28-13.13 96.6-12.4L96.6-12.4 98.26-8.69Q98.75-7.57 99.28-6.47L99.28-6.47Q100.29-7.69 98.41-12.08L98.41-12.08ZM135.46-0.59L135.46-0.59Q133.8 1 132.26 1L132.26 1Q131.41 1 131.09 0.37L131.09 0.37Q131.65-0.2 131.65-0.76 131.65-1.32 131.48-1.61L131.48-1.61 131.16-2.17 131.55-1.44Q130.97-1.71 130.65-2.34 130.33-2.98 130.33-3.89 130.33-4.81 131.36-5.98L131.36-5.98Q130.87-6.67 130.87-7.5 130.87-8.33 131.15-8.87 131.43-9.42 131.87-9.86L131.87-9.86Q132.85-10.79 133.95-10.79L133.95-10.79Q134.68-10.79 135-10.28L135-10.28Q134.34-9.57 134.34-8.04 134.34-6.52 134.86-5.44 135.39-4.37 136.29-3.61L136.29-3.61Q138.2-2 140.98-2L140.98-2Q144.08-2 145.28-4.27L145.28-4.27Q145.62-4.96 145.62-5.65 145.62-6.35 145.3-6.9 144.98-7.45 144.47-7.96L144.47-7.96Q143.62-8.79 141.86-9.86L141.86-9.86Q140.17-11.06 137.88-11.06L137.88-11.06Q136.39-11.06 135.88-10.82L135.88-10.82Q136.19-11.55 136.19-12.28 136.19-13.01 135.22-13.88 134.24-14.75 133.47-15.63 132.7-16.5 132.24-17.38L132.24-17.38Q131.31-19.04 131.31-20.9 131.31-22.75 132.08-24.18 132.85-25.61 134.24-26.64L134.24-26.64Q137.15-28.81 141.69-28.81L141.69-28.81Q143.88-28.81 144.7-28.61 145.52-28.42 146.01-28.25L146.01-28.25Q146.67-28 147.62-28 148.57-28 148.95-28.42 149.33-28.83 149.33-29.19 149.33-29.54 149.26-29.74L149.26-29.74Q149.4-29.79 149.69-29.79 149.99-29.79 150.37-29.61 150.74-29.44 151.04-29.15L151.04-29.15Q151.62-28.49 151.62-27.75 151.62-27 151.33-26.61L151.33-26.61Q152.01-25.98 152.01-24.8 152.01-23.63 151.04-22.83L151.04-22.83Q151.26-22.39 151.26-21.75 151.26-21.12 150.57-20.53 149.89-19.95 149.28-19.95L149.28-19.95Q148.23-19.95 147.86-20.21L147.86-20.21Q148.18-21 148.18-21.91 148.18-22.83 147.69-23.66 147.2-24.49 146.45-25L146.45-25Q145.03-25.98 143.08-25.98L143.08-25.98Q140.61-25.98 139.76-24.41L139.76-24.41Q139.49-23.93 139.49-23.35 139.49-22.78 139.65-22.3 139.81-21.83 140.17-21.34L140.17-21.34Q140.88-20.39 142.18-19.53L142.18-19.53Q143.86-18.43 144.52-18.43L144.52-18.43Q145.93-18.43 146.98-19.12L146.98-19.12Q146.69-17.94 146.69-17.48L146.69-17.48Q146.69-16.77 147.81-15.84L147.81-15.84Q150.96-13.67 152.11-11.87L152.11-11.87Q153.21-10.11 153.21-7.96 153.21-5.81 152.26-4.28 151.31-2.76 149.67-1.66L149.67-1.66Q146.28 0.61 141.44 0.61L141.44 0.61Q138.15 0.61 135.46-0.59ZM134.61-22.95L134.61-22.95Q133.9-22.61 133.9-21.06 133.9-19.51 134.9-18.1 135.9-16.7 138.07-14.94L138.07-14.94Q138.59-14.55 138.59-14.18L138.59-14.18Q138.59-13.62 138.49-13.28L138.49-13.28Q138.78-13.35 139.51-13.43L139.51-13.43Q141.3-13.6 143.93-11.77L143.93-11.77Q148.13-9.18 148.13-6.32L148.13-6.32Q148.13-5.25 147.84-4.71L147.84-4.71Q148.72-4.88 149.18-6.2L149.18-6.2Q149.3-6.59 149.3-7.01L149.3-7.01Q149.3-8.98 147.17-11.02 145.03-13.06 141.03-14.97L141.03-14.97Q134.39-18.33 134.61-22.95ZM172.13-3.58Q172.59-4.05 172.86-4.8 173.13-5.54 173.13-6.36 173.13-7.18 173.03-7.86L173.03-7.86Q173.2-8.23 173.96-8.44 174.72-8.64 174.96-8.64L174.96-8.64Q175.89-8.64 176.45-7.95 177.01-7.25 177.01-6.02 177.01-4.79 176.29-3.59 175.57-2.39 174.37-1.46L174.37-1.46Q171.71 0.61 168.17 0.61L168.17 0.61Q161.44 0.61 159.24-4.49L159.24-4.49Q158.43-6.37 158.43-9.2L158.43-9.2 158.43-12.18Q158.43-13.33 155.92-14.6L155.92-14.6Q158.43-16.04 158.43-18.48L158.43-18.48 158.43-21.36Q158.43-24.15 156.16-24.15L156.16-24.15Q155.33-24.15 154.79-23.73L154.79-23.73Q154.45-24.19 154.45-24.69 154.45-25.2 154.64-25.79 154.82-26.39 155.28-26.88L155.28-26.88Q156.45-28.15 158.92-27.76L158.92-27.76 158.92-28.54Q158.92-31.1 160.21-33.06L160.21-33.06Q161.36-34.81 162.25-34.81 163.14-34.81 163.63-34.2L163.63-34.2Q164.05-36.13 164.73-36.99 165.41-37.84 166.68-37.84L166.68-37.84 166.68-27.66 174.62-27.66Q174.81-27.27 174.81-26.35 174.81-25.44 174.11-24.89 173.4-24.34 172.4-24.34L172.4-24.34 166.68-24.34 166.68-7.81Q166.68-3.56 168.61-2.83L168.61-2.83Q169.17-2.64 169.82-2.64 170.47-2.64 171.07-2.87 171.66-3.1 172.13-3.58ZM160.78-8.06L160.78-6.47Q161.92-7.2 162.07-9.52L162.07-9.52Q162.17-11.18 162.18-12.11 162.19-13.04 162.2-13.61 162.22-14.18 162.22-14.5L162.22-14.5 162.22-15.48Q162.22-16.19 162.2-17.3 162.19-18.41 162.18-19.71 162.17-21.02 162.12-22.22L162.12-22.22Q162.05-25.1 161.9-25.73L161.9-25.73Q161.61-27.15 160.78-27.69L160.78-27.69 160.78-20.07Q160.78-16.67 160.67-16.48 160.56-16.28 160.48-16.02L160.48-16.02Q160.26-15.28 158.82-14.79L158.82-14.79Q160.29-14.28 160.48-13.55L160.48-13.55Q160.78-12.38 160.78-8.06L160.78-8.06ZM182.77-0.29L182.77-0.29Q181.65 0.49 180.21 0.49 178.77 0.49 178.12-0.18 177.47-0.85 177.47-1.46L177.47-1.46Q177.47-2.27 177.74-2.64L177.74-2.64Q178.28-2.22 179.11-2.22L179.11-2.22Q180.67-2.22 181.13-3.74L181.13-3.74 181.13-11.13Q181.13-12.26 180.7-12.79L180.7-12.79Q179.91-13.75 178.16-14.6L178.16-14.6Q181.13-15.97 181.13-18.8L181.13-18.8 181.13-21.36Q181.13-23.44 179.72-23.61L179.72-23.61Q179.3-23.66 178.67-23.66 178.03-23.66 177.5-23.24L177.5-23.24Q177.16-23.71 177.16-24.21 177.16-24.71 177.41-25.33 177.67-25.95 178.21-26.51L178.21-26.51Q179.47-27.83 181.17-27.83 182.87-27.83 183.99-27.29L183.99-27.29Q185.33-28.81 186.87-28.81L186.87-28.81Q189.26-28.81 189.26-26.17L189.26-26.17 189.26-22.83Q191.71-28.83 197.03-28.83L197.03-28.83Q199.42-28.83 200.91-27.37L200.91-27.37Q202.45-25.88 202.45-23.24L202.45-23.24 202.45-22.9Q202.45-22.73 202.4-22.2 202.35-21.68 202.44-21.14 202.52-20.61 202.72-20.26L202.72-20.26Q202.99-19.75 203.72-19.46L203.72-19.46Q203.55-18.8 202.92-18.27 202.3-17.75 201.55-17.75L201.55-17.75 201.08-17.75Q200.13-16.55 198.42-16.06L198.42-16.06Q197.93-15.92 197.36-15.92 196.78-15.92 196.36-16.17 195.93-16.43 195.88-16.72L195.88-16.72Q196.34-16.94 196.34-17.6L196.34-17.6 196.34-17.72Q196.15-17.68 196-17.68L196-17.68 195.76-17.68Q194.95-17.68 194.31-18.29 193.66-18.9 193.46-19.82L193.46-19.82Q194.78-19.78 195.76-20.8L195.76-20.8Q196.64-21.7 196.64-22.66L196.64-22.66Q196.64-24.9 194.68-24.9L194.68-24.9Q193-24.9 191.29-22.22L191.29-22.22Q189.68-19.75 189.26-17.11L189.26-17.11 189.26-3.91Q189.53-3.05 190.09-2.64 190.66-2.22 191.63-2.22 192.61-2.22 193.15-2.64L193.15-2.64Q193.42-2.27 193.42-1.56 193.42-0.85 192.77-0.18 192.12 0.49 190.6 0.49 189.07 0.49 187.68-0.34L187.68-0.34Q186.7 0.49 185.31 0.49 183.92 0.49 182.77-0.29ZM184.88-11.88Q184.89-12.7 184.91-13.26 184.92-13.82 184.92-14.16L184.92-14.16 184.92-14.82Q184.92-15.19 184.91-15.76 184.89-16.33 184.88-17.05 184.87-17.77 184.85-18.46L184.85-18.46Q184.7-21 184.3-21.72 183.89-22.44 183.48-22.71L183.48-22.71 183.48-21.12Q183.48-17.02 183.3-16.3 183.11-15.58 182.71-15.22 182.31-14.87 181.53-14.6L181.53-14.6Q182.99-14.09 183.19-13.35L183.19-13.35Q183.48-12.18 183.48-8.08L183.48-8.08 183.48-6.49Q184.6-7.23 184.75-9.47L184.75-9.47Q184.87-11.06 184.88-11.88ZM222.17-2.32L222.17-2.32Q219.95 0.61 215.51 0.61L215.51 0.61Q210.09 0.61 207.38-2.64L207.38-2.64Q206.21-4.03 205.77-5.74L205.77-5.74Q205.52-6.76 204.91-7.31 204.3-7.86 203.4-8.3L203.4-8.3Q205.16-9.11 205.91-11.33L205.91-11.33Q206.72-13.67 208.6-14.72L208.6-14.72Q210.62-15.82 213.07-15.88 215.51-15.94 216.68-16.04 217.85-16.14 218.75-16.36L218.75-16.36Q220.44-16.75 221.39-17.8L221.39-17.8 221.39-21.46Q221.39-23.88 220.4-25 219.41-26.12 217.4-26.12 215.39-26.12 214.42-25.38 213.46-24.63 213.46-23.39L213.46-23.39Q213.46-21.48 215.41-21.53L215.41-21.53Q215.02-19.63 213.36-19.63L213.36-19.63Q212.87-19.63 212.41-19.8L212.41-19.8 212.41-19.73Q212.41-19.09 212.99-18.92L212.99-18.92Q212.38-17.99 210.94-18.02 209.5-18.04 208.7-19.56L208.7-19.56Q208.33-19.46 207.85-19.46 207.38-19.46 206.8-19.78 206.23-20.09 205.89-20.65L205.89-20.65Q207.11-21.39 207.38-22.92L207.38-22.92Q207.67-24.8 210.38-26.73L210.38-26.73Q213.65-29.05 218.73-29.05L218.73-29.05Q227.15-29.05 229.01-23.88L229.01-23.88Q229.62-22.14 229.62-19.78L229.62-19.78 229.62-17.8Q229.62-16.6 230.22-15.84 230.81-15.09 232.26-14.6L232.26-14.6Q230.72-13.89 230.28-13.33L230.28-13.33Q229.62-12.48 229.62-11.38L229.62-11.38 229.62-4.05Q230.33-2.22 231.65-2.22L231.65-2.22Q232.48-2.22 233.01-2.64L233.01-2.64Q233.35-2.17 233.35-1.48 233.35-0.78 232.66-0.15 231.96 0.49 230.57 0.49 229.18 0.49 227.98-0.29L227.98-0.29Q226.93 0.49 226.12 0.49 225.3 0.49 224.7 0.33 224.1 0.17 223.59-0.17L223.59-0.17Q222.44-0.93 222.17-2.32ZM223.71-22.73L223.71-6.47Q225.13-7.03 225.2-11.87L225.2-11.87Q225.2-12.89 225.2-14.21 225.2-15.53 225.19-16.47 225.18-17.41 225.15-18.26L225.15-18.26Q225.05-21.34 224.59-21.94 224.13-22.53 223.71-22.73L223.71-22.73ZM214.7-8.2L214.7-8.2Q214.7-7.18 214.92-6.2 215.14-5.22 215.58-4.49L215.58-4.49Q216.56-2.95 218.34-2.95L218.34-2.95Q219.68-2.95 220.56-4.05L220.56-4.05Q221.39-5.13 221.39-6.81L221.39-6.81 221.39-14.77Q219.83-13.87 217.39-13.53L217.39-13.53Q214.7-13.11 214.7-8.2ZM211.04-2.71L211.04-2.71Q211.28-2.88 211.28-3.15L211.28-3.15Q211.28-3.52 210.94-4.17L210.94-4.17Q209.72-6.42 209.72-7.86 209.72-9.3 209.83-9.94 209.94-10.57 210.12-11.02 210.31-11.47 210.54-11.82 210.77-12.16 210.94-12.43L210.94-12.43Q211.26-12.99 211.26-13.2 211.26-13.4 211.04-13.55L211.04-13.55Q210.04-13.09 209.57-12.45L209.57-12.45Q208.74-11.33 208.35-9.55L208.35-9.55Q208.26-9.03 206.65-8.3L206.65-8.3Q208.21-7.59 208.35-7.06L208.35-7.06Q209.18-4.15 211.04-2.71ZM252.13-3.58Q252.59-4.05 252.86-4.8 253.13-5.54 253.13-6.36 253.13-7.18 253.03-7.86L253.03-7.86Q253.2-8.23 253.96-8.44 254.71-8.64 254.96-8.64L254.96-8.64Q255.89-8.64 256.45-7.95 257.01-7.25 257.01-6.02 257.01-4.79 256.29-3.59 255.57-2.39 254.37-1.46L254.37-1.46Q251.71 0.61 248.17 0.61L248.17 0.61Q241.43 0.61 239.24-4.49L239.24-4.49Q238.43-6.37 238.43-9.2L238.43-9.2 238.43-12.18Q238.43-13.33 235.92-14.6L235.92-14.6Q238.43-16.04 238.43-18.48L238.43-18.48 238.43-21.36Q238.43-24.15 236.16-24.15L236.16-24.15Q235.33-24.15 234.79-23.73L234.79-23.73Q234.45-24.19 234.45-24.69 234.45-25.2 234.63-25.79 234.82-26.39 235.28-26.88L235.28-26.88Q236.45-28.15 238.92-27.76L238.92-27.76 238.92-28.54Q238.92-31.1 240.21-33.06L240.21-33.06Q241.36-34.81 242.25-34.81 243.14-34.81 243.63-34.2L243.63-34.2Q244.04-36.13 244.73-36.99 245.41-37.84 246.68-37.84L246.68-37.84 246.68-27.66 254.62-27.66Q254.81-27.27 254.81-26.35 254.81-25.44 254.1-24.89 253.4-24.34 252.39-24.34L252.39-24.34 246.68-24.34 246.68-7.81Q246.68-3.56 248.61-2.83L248.61-2.83Q249.17-2.64 249.82-2.64 250.47-2.64 251.06-2.87 251.66-3.1 252.13-3.58ZM240.77-8.06L240.77-6.47Q241.92-7.2 242.07-9.52L242.07-9.52Q242.17-11.18 242.18-12.11 242.19-13.04 242.2-13.61 242.21-14.18 242.21-14.5L242.21-14.5 242.21-15.48Q242.21-16.19 242.2-17.3 242.19-18.41 242.18-19.71 242.17-21.02 242.12-22.22L242.12-22.22Q242.04-25.1 241.9-25.73L241.9-25.73Q241.6-27.15 240.77-27.69L240.77-27.69 240.77-20.07Q240.77-16.67 240.66-16.48 240.55-16.28 240.48-16.02L240.48-16.02Q240.26-15.28 238.82-14.79L238.82-14.79Q240.29-14.28 240.48-13.55L240.48-13.55Q240.77-12.38 240.77-8.06L240.77-8.06ZM263.82-2.73Q262.28-4.3 261.39-6.45 260.5-8.59 260.3-10.13 260.11-11.67 259.97-12.11 259.84-12.55 259.52-12.94L259.52-12.94Q258.89-13.75 257.2-14.58L257.2-14.58Q259.33-15.53 259.91-17.63L259.91-17.63Q260.08-18.21 260.18-18.8L260.18-18.8Q260.81-23.17 264.4-26.11 267.99-29.05 272.78-29.05L272.78-29.05Q277.76-29.05 281.35-26.07L281.35-26.07Q284.84-23.17 285.47-18.8L285.47-18.8Q285.69-17.26 286.13-16.55L286.13-16.55Q286.96-15.26 288.45-14.58L288.45-14.58Q286.79-13.77 286.3-13.16L286.3-13.16Q285.64-12.3 285.47-11.13L285.47-11.13Q284.69-5.37 281.47-2.38 278.25 0.61 272.88 0.61L272.88 0.61Q267.11 0.61 263.82-2.73L263.82-2.73ZM276.98-19.51Q276.98-25.61 272.83-25.61 268.68-25.61 268.68-19.51L268.68-19.51 268.68-8.69Q268.68-2.83 272.8-2.83L272.8-2.83Q276.98-2.83 276.98-8.69L276.98-8.69 276.98-19.51ZM279.32-22.73L279.32-6.47Q280.54-6.93 280.66-9.67L280.66-9.67Q280.81-12.4 280.81-13.73 280.81-15.06 280.8-15.95 280.79-16.85 280.76-17.8L280.76-17.8Q280.66-21.36 280.2-21.95 279.74-22.53 279.32-22.73L279.32-22.73ZM264.7-6.47L264.7-6.47Q265.04-6.74 265.04-7.08L265.04-7.08Q265.04-7.62 264.82-8.45L264.82-8.45Q263.82-12.28 263.82-13.78 263.82-15.28 263.92-16.13 264.01-16.97 264.16-17.82L264.16-17.82Q264.48-19.48 264.82-20.75L264.82-20.75Q265.04-21.58 265.04-21.88L265.04-21.88Q265.04-22.46 264.7-22.73L264.7-22.73Q263.67-21.51 263.13-19.46 262.6-17.41 262.26-15.84L262.26-15.84Q262.13-15.19 260.81-14.58L260.81-14.58Q262.13-13.96 262.26-13.35L262.26-13.35Q263.16-9.23 263.74-8.11 264.33-6.98 264.7-6.47ZM296.75-0.59L296.75-0.59Q295.09 1 293.55 1L293.55 1Q292.7 1 292.38 0.37L292.38 0.37Q292.94-0.2 292.94-0.76 292.94-1.32 292.77-1.61L292.77-1.61 292.45-2.17 292.84-1.44Q292.26-1.71 291.94-2.34 291.62-2.98 291.62-3.89 291.62-4.81 292.65-5.98L292.65-5.98Q292.16-6.67 292.16-7.5 292.16-8.33 292.44-8.87 292.72-9.42 293.16-9.86L293.16-9.86Q294.14-10.79 295.24-10.79L295.24-10.79Q295.97-10.79 296.29-10.28L296.29-10.28Q295.63-9.57 295.63-8.04 295.63-6.52 296.15-5.44 296.68-4.37 297.58-3.61L297.58-3.61Q299.48-2 302.27-2L302.27-2Q305.37-2 306.56-4.27L306.56-4.27Q306.91-4.96 306.91-5.65 306.91-6.35 306.59-6.9 306.27-7.45 305.76-7.96L305.76-7.96Q304.9-8.79 303.15-9.86L303.15-9.86Q301.46-11.06 299.17-11.06L299.17-11.06Q297.68-11.06 297.16-10.82L297.16-10.82Q297.48-11.55 297.48-12.28 297.48-13.01 296.51-13.88 295.53-14.75 294.76-15.63 293.99-16.5 293.53-17.38L293.53-17.38Q292.6-19.04 292.6-20.9 292.6-22.75 293.37-24.18 294.14-25.61 295.53-26.64L295.53-26.64Q298.43-28.81 302.98-28.81L302.98-28.81Q305.17-28.81 305.99-28.61 306.81-28.42 307.3-28.25L307.3-28.25Q307.96-28 308.91-28 309.86-28 310.24-28.42 310.62-28.83 310.62-29.19 310.62-29.54 310.54-29.74L310.54-29.74Q310.69-29.79 310.98-29.79 311.28-29.79 311.65-29.61 312.03-29.44 312.33-29.15L312.33-29.15Q312.91-28.49 312.91-27.75 312.91-27 312.62-26.61L312.62-26.61Q313.3-25.98 313.3-24.8 313.3-23.63 312.33-22.83L312.33-22.83Q312.55-22.39 312.55-21.75 312.55-21.12 311.86-20.53 311.18-19.95 310.57-19.95L310.57-19.95Q309.52-19.95 309.15-20.21L309.15-20.21Q309.47-21 309.47-21.91 309.47-22.83 308.98-23.66 308.49-24.49 307.74-25L307.74-25Q306.32-25.98 304.37-25.98L304.37-25.98Q301.9-25.98 301.05-24.41L301.05-24.41Q300.78-23.93 300.78-23.35 300.78-22.78 300.94-22.3 301.1-21.83 301.46-21.34L301.46-21.34Q302.17-20.39 303.46-19.53L303.46-19.53Q305.15-18.43 305.81-18.43L305.81-18.43Q307.22-18.43 308.27-19.12L308.27-19.12Q307.98-17.94 307.98-17.48L307.98-17.48Q307.98-16.77 309.1-15.84L309.1-15.84Q312.25-13.67 313.4-11.87L313.4-11.87Q314.5-10.11 314.5-7.96 314.5-5.81 313.55-4.28 312.59-2.76 310.96-1.66L310.96-1.66Q307.57 0.61 302.73 0.61L302.73 0.61Q299.44 0.61 296.75-0.59ZM295.9-22.95L295.9-22.95Q295.19-22.61 295.19-21.06 295.19-19.51 296.19-18.1 297.19-16.7 299.36-14.94L299.36-14.94Q299.87-14.55 299.87-14.18L299.87-14.18Q299.87-13.62 299.78-13.28L299.78-13.28Q300.07-13.35 300.8-13.43L300.8-13.43Q302.58-13.6 305.22-11.77L305.22-11.77Q309.42-9.18 309.42-6.32L309.42-6.32Q309.42-5.25 309.13-4.71L309.13-4.71Q310.01-4.88 310.47-6.2L310.47-6.2Q310.59-6.59 310.59-7.01L310.59-7.01Q310.59-8.98 308.46-11.02 306.32-13.06 302.32-14.97L302.32-14.97Q295.68-18.33 295.9-22.95ZM322.24 11.65L322.24 11.65Q321.14 12.45 319.7 12.45 318.26 12.45 317.56 11.82 316.86 11.18 316.86 10.6L316.86 10.6Q316.86 9.79 317.21 9.33L317.21 9.33Q317.74 9.74 318.57 9.74L318.57 9.74Q319.99 9.74 320.6 8.11L320.6 8.11 320.6-11.13Q320.6-12.26 320.14-12.79L320.14-12.79Q319.4-13.7 317.62-14.58L317.62-14.58Q320.6-15.94 320.6-18.8L320.6-18.8 320.6-21.36Q320.6-23.44 319.18-23.61L319.18-23.61Q318.77-23.66 318.13-23.66 317.5-23.66 316.96-23.24L316.96-23.24Q316.62-23.71 316.62-24.21 316.62-24.71 316.88-25.33 317.13-25.95 317.65-26.51L317.65-26.51Q318.94-27.83 320.64-27.83 322.33-27.83 323.46-27.29L323.46-27.29Q324.8-28.81 326.34-28.81L326.34-28.81Q328.85-28.81 328.85-26.17L328.85-26.17 328.85-26Q330.78-27.93 333.88-28.61L333.88-28.61Q334.83-28.81 336.33-28.81 337.84-28.81 339.5-28.37 341.16-27.93 342.38-26.81L342.38-26.81Q344.82-24.56 345.38-18.8L345.38-18.8Q345.62-15.82 348.36-14.58L348.36-14.58Q346.63-13.72 346.16-13.13L346.16-13.13Q345.55-12.3 345.38-11.13L345.38-11.13Q344.67-5.25 342.35-2.44L342.35-2.44Q339.81 0.61 335 0.61L335 0.61Q331.29 0.61 328.85-1.34L328.85-1.34 328.85 8.06Q329.46 9.74 330.88 9.74L330.88 9.74Q331.71 9.74 332.25 9.33L332.25 9.33Q332.59 9.79 332.59 10.49 332.59 11.18 331.89 11.82 331.2 12.45 329.78 12.45 328.36 12.45 327.22 11.65L327.22 11.65Q326.24 12.45 324.79 12.45 323.33 12.45 322.24 11.65ZM328.83-19.02L328.83-7.74Q328.83-5.76 330.15-4.35L330.15-4.35Q331.44-2.95 333.05-2.95L333.05-2.95Q337.13-2.95 337.13-8.81L337.13-8.81 337.13-19.51Q337.13-22.19 336.18-23.72 335.22-25.24 333.49-25.24L333.49-25.24Q330.39-25.24 329.22-21.83L329.22-21.83Q328.83-20.65 328.83-19.02L328.83-19.02ZM339.47-22.73L339.47-6.47Q340.69-6.93 340.84-9.67L340.84-9.67Q340.96-12.4 340.96-13.73 340.96-15.06 340.95-15.95 340.94-16.85 340.91-17.8L340.91-17.8Q340.81-21.36 340.35-21.95 339.89-22.53 339.47-22.73L339.47-22.73ZM322.89-7.35L322.89 0.63Q324.04-0.15 324.19-2.64L324.19-2.64Q324.24-4.05 324.26-5.91L324.26-5.91Q324.31-10.08 324.32-11.22 324.34-12.35 324.34-13.16L324.34-13.16 324.34-15.09Q324.34-15.48 324.32-16.05 324.31-16.63 324.3-17.3 324.29-17.97 324.24-18.6L324.24-18.6Q324.12-21.02 323.71-21.74 323.31-22.46 322.89-22.73L322.89-22.73 322.89-21.26Q322.89-17.02 322.71-16.3 322.53-15.58 322.13-15.21 321.72-14.84 320.94-14.58L320.94-14.58Q322.41-14.06 322.6-13.35L322.6-13.35Q322.89-12.28 322.89-7.35L322.89-7.35ZM356.27-0.29L356.27-0.29Q355.14 0.49 353.72 0.49 352.29 0.49 351.59-0.15 350.9-0.78 350.9-1.37L350.9-1.37Q350.9-2.17 351.24-2.64L351.24-2.64Q351.77-2.22 352.6-2.22L352.6-2.22Q354.02-2.22 354.63-3.86L354.63-3.86 354.63-11.38Q354.63-12.6 354.17-13.04L354.17-13.04Q353.61-13.62 351.65-14.58L351.65-14.58Q353.36-15.36 353.82-15.82L353.82-15.82Q354.63-16.63 354.63-17.8L354.63-17.8 354.63-31.62Q354.63-34.4 352.36-34.4L352.36-34.4Q351.53-34.4 350.99-33.98L350.99-33.98Q350.65-34.45 350.65-34.95 350.65-35.45 350.91-35.91 351.16-36.38 351.68-36.77L351.68-36.77Q352.85-37.6 354.61-37.6 356.36-37.6 357.34-37.38L357.34-37.38Q358.68-39.06 360.37-39.06L360.37-39.06Q362.88-39.06 362.88-36.43L362.88-36.43 362.88-24.39Q365.25-28.81 370.62-28.81L370.62-28.81Q376.77-28.81 378.46-23.36L378.46-23.36Q379-21.63 379-19.43L379-19.43 379-17.8Q379-16.65 379.51-16.14L379.51-16.14Q380.27-15.38 381.97-14.6L381.97-14.6Q380.12-13.7 379.68-13.21L379.68-13.21Q379-12.45 379-11.38L379-11.38 379-3.74Q379.46-2.22 381.02-2.22L381.02-2.22Q381.85-2.22 382.39-2.64L382.39-2.64Q382.66-2.27 382.66-1.56 382.66-0.85 382.01-0.18 381.36 0.49 379.95 0.49 378.53 0.49 377.34-0.29L377.34-0.29Q376.24 0.49 374.86 0.49 373.48 0.49 372.45-0.24L372.45-0.24Q371.5 0.49 370.32 0.49 369.13 0.49 368.42-0.12 367.72-0.73 367.72-1.88L367.72-1.88Q367.72-2.42 368.08-2.73L368.08-2.73Q368.64-2.29 369.21-2.29L369.21-2.29Q370.28-2.29 370.74-3.49L370.74-3.49 370.74-18.04Q370.74-22.8 368.42-23.54L368.42-23.54Q367.69-23.78 366.84-23.78L366.84-23.78Q364.3-23.78 363.3-21.09L363.3-21.09Q362.98-20.26 362.88-19.29L362.88-19.29 362.88-3.49Q363.35-2.29 364.42-2.29L364.42-2.29Q364.98-2.29 365.54-2.73L365.54-2.73Q365.91-2.42 365.91-1.57 365.91-0.73 365.2-0.12 364.49 0.49 363.3 0.49 362.1 0.49 361.15-0.24L361.15-0.24Q360.15 0.49 358.78 0.49 357.41 0.49 356.27-0.29ZM356.93-8.08L356.93-6.49Q358.02-7.2 358.22-9.59L358.22-9.59Q358.29-10.64 358.32-11.94 358.34-13.23 358.35-13.78 358.37-14.33 358.37-14.6L358.37-14.6 358.37-16.8Q358.37-17.7 358.37-18.85L358.37-18.85 358.32-21.24Q358.27-27.71 358.1-28.44L358.1-28.44Q357.76-29.98 356.93-30.52L356.93-30.52 356.93-22.29Q356.93-17.24 356.82-16.66 356.71-16.09 356.63-15.82L356.63-15.82Q356.41-15.06 354.97-14.58L354.97-14.58Q356.44-14.06 356.63-13.35L356.63-13.35Q356.93-12.18 356.93-8.08L356.93-8.08ZM373.06-15.26L373.06-6.47Q374.28-6.93 374.43-9.67L374.43-9.67Q374.55-12.4 374.55-14.69 374.55-16.97 374.41-18.41 374.26-19.85 373.93-20.69 373.6-21.53 373.09-21.96 372.57-22.39 371.84-22.75L371.84-22.75Q372.77-20.56 372.92-18.75 373.06-16.94 373.06-15.26L373.06-15.26ZM406.8-7.37L406.8-7.37Q407.34-8.4 408.78-8.4L408.78-8.4Q409.76-8.4 410.29-7.59L410.29-7.59Q410.73-6.96 410.73-6.04 410.73-5.13 410.27-4.2 409.8-3.27 409-2.51 408.19-1.76 407.15-1.17 406.12-0.59 404.95-0.2L404.95-0.2Q402.53 0.61 399.92 0.61 397.3 0.61 395.02-0.26 392.74-1.12 391.1-2.69L391.1-2.69Q387.9-5.76 387.2-11.13L387.2-11.13Q387.03-12.33 386.63-12.84L386.63-12.84Q385.9-13.75 384.22-14.58L384.22-14.58Q386.34-15.53 386.93-17.63L386.93-17.63Q387.1-18.21 387.2-18.8L387.2-18.8Q387.81-23.1 391.54-26.12L391.54-26.12Q395.16-29.05 399.62-29.05L399.62-29.05Q404.26-29.05 407.66-25.78L407.66-25.78Q411.17-22.41 411.17-17.5L411.17-17.5Q411.17-17.33 411.16-17.16 411.15-16.99 411.17-16.85L411.17-16.85Q411.22-16.53 411.56-16.48L411.56-16.48Q412-15.92 412-15.28L412-15.28Q412-13.82 410.44-13.55L410.44-13.55Q410.05-13.48 409.22-13.35L409.22-13.35 395.45-11.16 395.45-8.81Q395.45-5.98 397.16-4.32L397.16-4.32Q398.77-2.73 401.23-2.73L401.23-2.73Q403.85-2.73 405.43-3.81L405.43-3.81Q406.92-4.83 406.92-6.49L406.92-6.49Q406.92-6.88 406.8-7.37ZM395.45-14.11L402.53-15.26 402.53-22.09Q402.53-23.71 401.89-24.46L401.89-24.46Q400.77-25.76 399.67-25.76 398.57-25.76 397.84-25.43 397.11-25.1 396.57-24.39L396.57-24.39Q395.45-22.9 395.45-19.75L395.45-19.75 395.45-14.11ZM404.63-15.63L406.14-15.87 406.14-16.63Q406.14-21.17 405.38-22.12L405.38-22.12Q405.04-22.53 404.63-22.73L404.63-22.73 404.63-15.63ZM391.47-6.47L391.47-6.47Q391.81-6.74 391.81-7.08L391.81-7.08Q391.81-7.62 391.59-8.45L391.59-8.45Q390.59-12.28 390.59-13.78 390.59-15.28 390.69-16.13 390.79-16.97 390.96-17.82L390.96-17.82Q391.25-19.48 391.59-20.75L391.59-20.75Q391.81-21.58 391.81-21.88L391.81-21.88Q391.81-22.46 391.47-22.73L391.47-22.73Q390.44-21.51 389.91-19.46 389.37-17.41 389.03-15.84L389.03-15.84Q388.91-15.19 387.59-14.58L387.59-14.58Q388.91-13.96 389.03-13.35L389.03-13.35Q389.93-9.23 390.52-8.11 391.1-6.98 391.47-6.47ZM419.74-0.29L419.74-0.29Q418.61 0.49 417.17 0.49 415.73 0.49 415.09-0.18 414.44-0.85 414.44-1.46L414.44-1.46Q414.44-2.27 414.71-2.64L414.71-2.64Q415.25-2.22 416.08-2.22L416.08-2.22Q417.64-2.22 418.1-3.74L418.1-3.74 418.1-11.13Q418.1-12.26 417.66-12.79L417.66-12.79Q416.88-13.75 415.12-14.6L415.12-14.6Q418.1-15.97 418.1-18.8L418.1-18.8 418.1-21.36Q418.1-23.44 416.69-23.61L416.69-23.61Q416.27-23.66 415.64-23.66 415-23.66 414.46-23.24L414.46-23.24Q414.12-23.71 414.12-24.21 414.12-24.71 414.38-25.33 414.64-25.95 415.17-26.51L415.17-26.51Q416.44-27.83 418.14-27.83 419.84-27.83 420.96-27.29L420.96-27.29Q422.3-28.81 423.84-28.81L423.84-28.81Q426.23-28.81 426.23-26.17L426.23-26.17 426.23-22.83Q428.67-28.83 434-28.83L434-28.83Q436.39-28.83 437.88-27.37L437.88-27.37Q439.42-25.88 439.42-23.24L439.42-23.24 439.42-22.9Q439.42-22.73 439.37-22.2 439.32-21.68 439.4-21.14 439.49-20.61 439.68-20.26L439.68-20.26Q439.95-19.75 440.69-19.46L440.69-19.46Q440.51-18.8 439.89-18.27 439.27-17.75 438.51-17.75L438.51-17.75 438.05-17.75Q437.1-16.55 435.39-16.06L435.39-16.06Q434.9-15.92 434.33-15.92 433.75-15.92 433.32-16.17 432.9-16.43 432.85-16.72L432.85-16.72Q433.31-16.94 433.31-17.6L433.31-17.6 433.31-17.72Q433.12-17.68 432.97-17.68L432.97-17.68 432.73-17.68Q431.92-17.68 431.27-18.29 430.63-18.9 430.43-19.82L430.43-19.82Q431.75-19.78 432.73-20.8L432.73-20.8Q433.61-21.7 433.61-22.66L433.61-22.66Q433.61-24.9 431.65-24.9L431.65-24.9Q429.97-24.9 428.26-22.22L428.26-22.22Q426.65-19.75 426.23-17.11L426.23-17.11 426.23-3.91Q426.5-3.05 427.06-2.64 427.62-2.22 428.6-2.22 429.58-2.22 430.11-2.64L430.11-2.64Q430.38-2.27 430.38-1.56 430.38-0.85 429.74-0.18 429.09 0.49 427.56 0.49 426.04 0.49 424.65-0.34L424.65-0.34Q423.67 0.49 422.28 0.49 420.89 0.49 419.74-0.29ZM421.85-11.88Q421.86-12.7 421.87-13.26 421.89-13.82 421.89-14.16L421.89-14.16 421.89-14.82Q421.89-15.19 421.87-15.76 421.86-16.33 421.85-17.05 421.84-17.77 421.81-18.46L421.81-18.46Q421.67-21 421.26-21.72 420.86-22.44 420.45-22.71L420.45-22.71 420.45-21.12Q420.45-17.02 420.26-16.3 420.08-15.58 419.68-15.22 419.27-14.87 418.49-14.6L418.49-14.6Q419.96-14.09 420.15-13.35L420.15-13.35Q420.45-12.18 420.45-8.08L420.45-8.08 420.45-6.49Q421.57-7.23 421.72-9.47L421.72-9.47Q421.84-11.06 421.85-11.88ZM463.46-7.37L463.46-7.37Q464-8.4 465.44-8.4L465.44-8.4Q466.42-8.4 466.95-7.59L466.95-7.59Q467.39-6.96 467.39-6.04 467.39-5.13 466.93-4.2 466.46-3.27 465.66-2.51 464.85-1.76 463.81-1.17 462.78-0.59 461.61-0.2L461.61-0.2Q459.19 0.61 456.58 0.61 453.96 0.61 451.68-0.26 449.4-1.12 447.76-2.69L447.76-2.69Q444.56-5.76 443.86-11.13L443.86-11.13Q443.69-12.33 443.29-12.84L443.29-12.84Q442.56-13.75 440.88-14.58L440.88-14.58Q443-15.53 443.59-17.63L443.59-17.63Q443.76-18.21 443.86-18.8L443.86-18.8Q444.47-23.1 448.2-26.12L448.2-26.12Q451.82-29.05 456.28-29.05L456.28-29.05Q460.92-29.05 464.32-25.78L464.32-25.78Q467.83-22.41 467.83-17.5L467.83-17.5Q467.83-17.33 467.82-17.16 467.81-16.99 467.83-16.85L467.83-16.85Q467.88-16.53 468.22-16.48L468.22-16.48Q468.66-15.92 468.66-15.28L468.66-15.28Q468.66-13.82 467.1-13.55L467.1-13.55Q466.71-13.48 465.88-13.35L465.88-13.35 452.11-11.16 452.11-8.81Q452.11-5.98 453.82-4.32L453.82-4.32Q455.43-2.73 457.89-2.73L457.89-2.73Q460.51-2.73 462.09-3.81L462.09-3.81Q463.58-4.83 463.58-6.49L463.58-6.49Q463.58-6.88 463.46-7.37ZM452.11-14.11L459.19-15.26 459.19-22.09Q459.19-23.71 458.55-24.46L458.55-24.46Q457.43-25.76 456.33-25.76 455.23-25.76 454.5-25.43 453.77-25.1 453.23-24.39L453.23-24.39Q452.11-22.9 452.11-19.75L452.11-19.75 452.11-14.11ZM461.29-15.63L462.8-15.87 462.8-16.63Q462.8-21.17 462.04-22.12L462.04-22.12Q461.7-22.53 461.29-22.73L461.29-22.73 461.29-15.63ZM448.13-6.47L448.13-6.47Q448.47-6.74 448.47-7.08L448.47-7.08Q448.47-7.62 448.25-8.45L448.25-8.45Q447.25-12.28 447.25-13.78 447.25-15.28 447.35-16.13 447.45-16.97 447.62-17.82L447.62-17.82Q447.91-19.48 448.25-20.75L448.25-20.75Q448.47-21.58 448.47-21.88L448.47-21.88Q448.47-22.46 448.13-22.73L448.13-22.73Q447.1-21.51 446.57-19.46 446.03-17.41 445.69-15.84L445.69-15.84Q445.57-15.19 444.25-14.58L444.25-14.58Q445.57-13.96 445.69-13.35L445.69-13.35Q446.59-9.23 447.18-8.11 447.76-6.98 448.13-6.47Z" opacity="1" transform="matrix(1,0,0,1,0,0)" fill="#000000" class="undefined-text-0" data-fill-palette-color="primary" id="text-0"></path></svg></g></svg></g><g transform="matrix(1,0,0,1,0,26.498951626839194)"><svg viewBox="0 0 192 13.248661170823333" height="13.248661170823333" width="192"><g transform="matrix(1,0,0,1,0,0)"><svg width="192" viewBox="0.3499999940395355 -37.400001525878906 558.6700439453125 38.55000305175781" height="13.248661170823333" data-palette-color="#001f3f"><path d="M8.45-1.15L0.35 0.05Q1.85-6.95 3.15-13.55L3.15-13.55Q3.65-16.4 4.2-19.45 4.75-22.5 5.23-25.5 5.7-28.5 6.08-31.33 6.45-34.15 6.65-36.45L6.65-36.45Q7.8-36.35 9.25-36.27 10.7-36.2 11.95-36.1L11.95-36.1Q13.45-36 14.95-36L14.95-36Q14.9-35.8 14.8-35.25 14.7-34.7 14.55-33.93 14.4-33.15 14.23-32.2 14.05-31.25 13.85-30.3L13.85-30.3Q13.45-28.1 12.95-25.35L12.95-25.35 13.25-25.4Q13.75-26.2 14.68-27.63 15.6-29.05 16.6-30.65 17.6-32.25 18.55-33.73 19.5-35.2 20.15-36.25L20.15-36.25Q22.65-36.45 25.15-36.7 27.65-36.95 30.15-37.35L30.15-37.35Q27.8-34.2 25.6-31.15L25.6-31.15Q24.65-29.85 23.68-28.45 22.7-27.05 21.75-25.7 20.8-24.35 19.98-23.1 19.15-21.85 18.5-20.8L18.5-20.8Q19.6-15.75 21.1-11.05 22.6-6.35 24.15-1.45L24.15-1.45Q23-1.5 21.8-1.53 20.6-1.55 19.45-1.55L19.45-1.55Q18-1.55 16.65-1.53 15.3-1.5 13.85-1.45L13.85-1.45Q13.4-4.7 12.88-8.28 12.35-11.85 11.9-15.1L11.9-15.1 11-14.05Q10.65-12.55 10.23-10.35 9.8-8.15 9.4-6.1L9.4-6.1Q8.95-3.7 8.45-1.15L8.45-1.15ZM67.2-2.45L51.05 0.05 57.6-35.5 73.4-36.85Q73.05-35.75 72.8-34.6L72.8-34.6Q72.55-33.65 72.33-32.63 72.1-31.6 71.95-30.8L71.95-30.8Q71.45-30.75 70.53-30.73 69.6-30.7 68.55-30.68 67.5-30.65 66.43-30.65 65.35-30.65 64.55-30.65L64.55-30.65 62.8-21.7Q64.35-21.8 65.7-21.85L65.7-21.85Q66.8-21.9 67.95-21.9 69.1-21.9 69.65-21.95L69.65-21.95Q69.45-20.55 69.28-19.2 69.1-17.85 68.85-16.45L68.85-16.45Q68.35-16.4 67.23-16.38 66.1-16.35 64.95-16.3L64.95-16.3Q63.65-16.25 62.1-16.2L62.1-16.2 60.4-7 67.7-8.15 67.2-2.45ZM111.8-2.45L95.65 0.05 102.2-35.5 118-36.85Q117.65-35.75 117.4-34.6L117.4-34.6Q117.15-33.65 116.93-32.63 116.7-31.6 116.55-30.8L116.55-30.8Q116.05-30.75 115.13-30.73 114.2-30.7 113.15-30.68 112.1-30.65 111.03-30.65 109.95-30.65 109.15-30.65L109.15-30.65 107.4-21.7Q108.95-21.8 110.3-21.85L110.3-21.85Q111.4-21.9 112.55-21.9 113.7-21.9 114.25-21.95L114.25-21.95Q114.05-20.55 113.88-19.2 113.7-17.85 113.45-16.45L113.45-16.45Q112.95-16.4 111.83-16.38 110.7-16.35 109.55-16.3L109.55-16.3Q108.25-16.25 106.7-16.2L106.7-16.2 105-7 112.3-8.15 111.8-2.45ZM148.35-1.65L139.7 0.05Q141.2-6.7 142.55-13.15L142.55-13.15Q143.1-15.85 143.7-18.85 144.3-21.85 144.85-24.75 145.4-27.65 145.9-30.35 146.4-33.05 146.75-35.3L146.75-35.3Q148.2-35.75 149.6-36.08 151-36.4 152.48-36.65 153.95-36.9 155.25-36.9L155.25-36.9Q157.5-36.9 159.03-36.15 160.55-35.4 161.5-34.13 162.45-32.85 162.85-31.15 163.25-29.45 163.25-27.5L163.25-27.5Q163.25-24.7 162.23-22.1 161.2-19.5 159.48-17.48 157.75-15.45 155.53-14.25 153.3-13.05 150.9-13.05L150.9-13.05 150.35-13.05Q149.95-11.35 149.6-9.35 149.25-7.35 149-5.65L149-5.65Q148.65-3.65 148.35-1.65L148.35-1.65ZM153.65-30.85Q153.1-27.55 152.55-24.6 152-21.65 151.35-18.3L151.35-18.3Q152.15-18.5 153.03-19.23 153.9-19.95 154.65-21.13 155.4-22.3 155.85-23.85 156.3-25.4 156.3-27.1L156.3-27.1Q156.3-28.95 155.48-29.9 154.65-30.85 153.65-30.85L153.65-30.85ZM232.16-1Q231.71-1 230.38-0.88 229.06-0.75 227.66-0.58 226.26-0.4 225.13-0.25 224.01-0.1 223.91-0.05L223.91-0.05Q224.41-2.2 224.93-4.83 225.46-7.45 226.01-10.33 226.56-13.2 227.06-16.15 227.56-19.1 228.01-21.85L228.01-21.85Q229.06-28.25 230.11-35L230.11-35 237.91-36.25Q236.76-29.55 235.66-23.1L235.66-23.1Q235.21-20.35 234.73-17.4 234.26-14.45 233.78-11.55 233.31-8.65 232.91-5.93 232.51-3.2 232.16-1L232.16-1ZM274.81-1.35L265.81 0.05Q266.96-5.45 268.01-10.8L268.01-10.8Q268.46-13.05 268.91-15.5 269.36-17.95 269.78-20.33 270.21-22.7 270.53-24.93 270.86-27.15 271.11-29L271.11-29Q269.96-29.15 268.78-29.1 267.61-29.05 266.46-29.4L266.46-29.4Q266.51-30.2 266.51-31.25 266.51-32.3 266.56-33.35L266.56-33.35Q266.61-34.5 266.66-35.8L266.66-35.8Q267.96-35.7 269.26-35.65 270.56-35.6 271.86-35.6L271.86-35.6Q274.41-35.6 276.78-35.73 279.16-35.85 281.18-36.02 283.21-36.2 285.16-36.45L285.16-36.45 284.61-33.75Q284.36-32.6 284.13-31.4 283.91-30.2 283.71-29.35L283.71-29.35Q282.61-29.05 281.48-28.93 280.36-28.8 279.26-28.6L279.26-28.6Q278.91-26.9 278.51-24.83 278.11-22.75 277.73-20.53 277.36-18.3 277.01-16 276.66-13.7 276.31-11.6L276.31-11.6Q275.51-6.65 274.81-1.35L274.81-1.35ZM365.61-10.75Q364.41-8 362.94-5.98 361.46-3.95 359.84-2.58 358.21-1.2 356.56-0.55 354.91 0.1 353.36 0.1L353.36 0.1Q351.81 0.1 350.54-0.6 349.26-1.3 348.31-2.7 347.36-4.1 346.79-6.15 346.21-8.2 346.21-10.95L346.21-10.95Q346.21-15.65 347.51-20.23 348.81-24.8 351.16-28.45 353.51-32.1 356.74-34.33 359.96-36.55 363.86-36.55L363.86-36.55Q365.06-36.55 366.16-36.05 367.26-35.55 368.06-34.65 368.86-33.75 369.34-32.45 369.81-31.15 369.81-29.55L369.81-29.55Q369.81-29.25 369.81-28.93 369.81-28.6 369.76-28.25L369.76-28.25 363.21-26.5Q362.61-27.75 361.81-27.75L361.81-27.75Q361.01-27.75 360.14-26.83 359.26-25.9 358.41-24.43 357.56-22.95 356.76-21.13 355.96-19.3 355.36-17.45 354.76-15.6 354.39-13.93 354.01-12.25 354.01-11.2L354.01-11.2Q354.01-9.6 354.44-8.95 354.86-8.3 355.56-8.3L355.56-8.3Q356.11-8.3 356.81-8.72 357.51-9.15 358.11-9.83 358.71-10.5 359.21-11.35 359.71-12.2 359.91-13.05L359.91-13.05 365.61-10.75ZM420.51-27.05Q420.51-22.95 419.64-19.33 418.76-15.7 417.31-12.68 415.86-9.65 413.94-7.28 412.01-4.9 409.91-3.23 407.81-1.55 405.66-0.68 403.51 0.2 401.56 0.2L401.56 0.2Q399.91 0.2 398.56-0.43 397.21-1.05 396.21-2.27 395.21-3.5 394.64-5.43 394.06-7.35 394.06-10.05L394.06-10.05Q394.06-12.85 394.76-15.95 395.46-19.05 396.66-22.1 397.86-25.15 399.61-27.9 401.36-30.65 403.46-32.77 405.56-34.9 407.96-36.15 410.36-37.4 412.96-37.4L412.96-37.4Q415.21-37.4 416.69-36.48 418.16-35.55 418.99-34.08 419.81-32.6 420.16-30.75 420.51-28.9 420.51-27.05L420.51-27.05ZM401.51-11.35Q401.51-10.8 401.71-10.2 401.91-9.6 402.26-9.15 402.61-8.7 403.14-8.38 403.66-8.05 404.26-8.05L404.26-8.05Q406.51-8.05 408.26-9.6 410.01-11.15 411.16-13.4 412.31-15.65 412.94-18.2 413.56-20.75 413.56-22.85L413.56-22.85Q413.56-23.45 413.49-24.15 413.41-24.85 413.19-25.45 412.96-26.05 412.49-26.48 412.01-26.9 411.21-26.9L411.21-26.9Q409.61-26.9 408.26-26.1 406.91-25.3 405.84-23.98 404.76-22.65 403.96-20.98 403.16-19.3 402.59-17.57 402.01-15.85 401.76-14.2 401.51-12.55 401.51-11.35L401.51-11.35ZM472.71-27.05Q472.71-22.95 471.84-19.33 470.96-15.7 469.51-12.68 468.06-9.65 466.14-7.28 464.21-4.9 462.11-3.23 460.01-1.55 457.86-0.68 455.71 0.2 453.76 0.2L453.76 0.2Q452.11 0.2 450.76-0.43 449.41-1.05 448.41-2.27 447.41-3.5 446.84-5.43 446.26-7.35 446.26-10.05L446.26-10.05Q446.26-12.85 446.96-15.95 447.66-19.05 448.86-22.1 450.06-25.15 451.81-27.9 453.56-30.65 455.66-32.77 457.76-34.9 460.16-36.15 462.56-37.4 465.16-37.4L465.16-37.4Q467.41-37.4 468.89-36.48 470.36-35.55 471.19-34.08 472.01-32.6 472.36-30.75 472.71-28.9 472.71-27.05L472.71-27.05ZM453.71-11.35Q453.71-10.8 453.91-10.2 454.11-9.6 454.46-9.15 454.81-8.7 455.34-8.38 455.86-8.05 456.46-8.05L456.46-8.05Q458.71-8.05 460.46-9.6 462.21-11.15 463.36-13.4 464.51-15.65 465.14-18.2 465.76-20.75 465.76-22.85L465.76-22.85Q465.76-23.45 465.69-24.15 465.61-24.85 465.39-25.45 465.16-26.05 464.69-26.48 464.21-26.9 463.41-26.9L463.41-26.9Q461.81-26.9 460.46-26.1 459.11-25.3 458.04-23.98 456.96-22.65 456.16-20.98 455.36-19.3 454.79-17.57 454.21-15.85 453.96-14.2 453.71-12.55 453.71-11.35L453.71-11.35ZM510.72-1.6Q509.17-1.6 507.44-1.5 505.72-1.4 503.97-1.2 502.22-1 500.54-0.68 498.87-0.35 497.52 0.1L497.52 0.1Q497.82-2.15 498.22-4.9 498.62-7.65 499.14-10.6 499.67-13.55 500.19-16.55 500.72-19.55 501.27-22.3L501.27-22.3Q502.52-28.85 503.92-35.65L503.92-35.65 512.67-36.8Q511.32-31 510.07-25.5L510.07-25.5Q509.52-23.15 508.97-20.63 508.42-18.1 507.92-15.7 507.42-13.3 507.02-11.05 506.62-8.8 506.37-7.05L506.37-7.05Q507.62-7.15 509.04-7.18 510.47-7.2 511.57-7.2L511.57-7.2Q511.62-6.25 511.72-5.33 511.82-4.4 511.94-3.65 512.07-2.9 512.14-2.33 512.22-1.75 512.27-1.55L512.27-1.55Q511.87-1.55 511.49-1.58 511.12-1.6 510.72-1.6L510.72-1.6ZM549.67-11.85Q548.22-11.85 546.77-11.75 545.32-11.65 543.87-11.55L543.87-11.55Q545.42-17.7 546.89-23.8 548.37-29.9 549.97-36.05L549.97-36.05Q550.92-36.2 552.14-36.35 553.37-36.5 554.62-36.7 555.87-36.9 557.04-37.05 558.22-37.2 559.02-37.35L559.02-37.35Q556.32-31.05 554.09-24.68 551.87-18.3 549.67-11.85L549.67-11.85ZM550.17-4Q550.17-3.05 549.74-2.1 549.32-1.15 548.52-0.43 547.72 0.3 546.52 0.73 545.32 1.15 543.77 1.15L543.77 1.15Q542.72 1.15 541.87 0.75 541.02 0.35 540.49-0.33 539.97-1 539.67-1.85 539.37-2.7 539.37-3.55L539.37-3.55Q539.37-4.5 539.67-5.38 539.97-6.25 540.59-6.93 541.22-7.6 542.14-8.05 543.07-8.5 544.37-8.5L544.37-8.5Q547.27-8.5 548.72-7.13 550.17-5.75 550.17-4L550.17-4Z" opacity="1" transform="matrix(1,0,0,1,0,0)" fill="#000000" class="undefined-text-1" data-fill-palette-color="secondary" id="text-1"></path></svg></g></svg></g></svg></g></svg></g></svg></g></svg></g></svg></g></svg></g><defs></defs></svg><rect width="320" height="360" fill="none" stroke="none" visibility="hidden"></rect></g></svg></g></svg>